<?xml version="1.0" encoding="UTF-8" standalone="no"?><!DOCTYPE svg PUBLIC "-//W3C//DTD SVG 1.1//EN" "http://www.w3.org/Graphics/SVG/1.1/DTD/svg11.dtd"><svg width="100%" height="100%" viewBox="0 0 939 688" version="1.1" xmlns="http://www.w3.org/2000/svg" xmlns:xlink="http://www.w3.org/1999/xlink" xml:space="preserve" style="fill-rule:evenodd;clip-rule:evenodd;stroke-linecap:round;stroke-linejoin:round;stroke-miterlimit:1.5;"><g id="CASCADE"><path d="M38.826,114.055c-0.188,0 -0.352,-0.071 -0.493,-0.212c-0.14,-0.14 -0.211,-0.304 -0.211,-0.492l0,-37.702c0,-0.188 0.071,-0.352 0.211,-0.492c0.141,-0.141 0.305,-0.212 0.493,-0.212c0.218,0 0.39,0.071 0.515,0.212c0.126,0.14 0.188,0.304 0.188,0.492l0,37.702c0,0.188 -0.062,0.352 -0.188,0.492c-0.125,0.141 -0.297,0.212 -0.515,0.212Z" style="fill-rule:nonzero;"/><path d="M68.322,114.055c-0.219,0 -0.391,-0.071 -0.516,-0.212c-0.125,-0.14 -0.188,-0.304 -0.188,-0.492l0,-14.49c0,-1.094 -0.211,-2.126 -0.633,-3.095c-0.422,-0.969 -0.992,-1.813 -1.712,-2.532c-0.719,-0.719 -1.563,-1.29 -2.532,-1.712c-0.969,-0.422 -2.001,-0.633 -3.095,-0.633c-1.094,0 -2.118,0.211 -3.071,0.633c-0.954,0.422 -1.79,0.993 -2.509,1.712c-0.719,0.719 -1.29,1.563 -1.712,2.532c-0.422,0.969 -0.633,2.001 -0.633,3.095l0,14.49c0,0.188 -0.07,0.352 -0.211,0.492c-0.14,0.141 -0.305,0.212 -0.492,0.212c-0.188,0 -0.352,-0.071 -0.492,-0.212c-0.141,-0.14 -0.211,-0.304 -0.211,-0.492l0,-14.49c0,-1.282 0.242,-2.493 0.726,-3.634c0.485,-1.141 1.149,-2.134 1.993,-2.978c0.844,-0.844 1.837,-1.516 2.978,-2.016c1.141,-0.5 2.353,-0.751 3.634,-0.751c1.282,0 2.493,0.251 3.635,0.751c1.141,0.5 2.133,1.172 2.977,2.016c0.844,0.844 1.516,1.837 2.017,2.978c0.5,1.141 0.75,2.352 0.75,3.634l0,14.49c0,0.188 -0.07,0.352 -0.211,0.492c-0.141,0.141 -0.305,0.212 -0.492,0.212Z" style="fill-rule:nonzero;"/><path d="M80.936,114.055c-0.188,0 -0.352,-0.071 -0.493,-0.212c-0.14,-0.14 -0.211,-0.304 -0.211,-0.492l0,-23.165c0,-0.188 0.071,-0.352 0.211,-0.493c0.141,-0.14 0.305,-0.211 0.493,-0.211c0.187,0 0.352,0.071 0.492,0.211c0.141,0.141 0.211,0.305 0.211,0.493l0,23.165c0,0.188 -0.07,0.352 -0.211,0.492c-0.14,0.141 -0.305,0.212 -0.492,0.212Zm0,-28.559c-0.188,0 -0.352,-0.07 -0.493,-0.211c-0.14,-0.14 -0.211,-0.304 -0.211,-0.492l0,-1.641c0,-0.188 0.071,-0.352 0.211,-0.493c0.141,-0.14 0.305,-0.211 0.493,-0.211c0.187,0 0.352,0.071 0.492,0.211c0.141,0.141 0.211,0.305 0.211,0.493l0,1.641c0,0.188 -0.07,0.352 -0.211,0.492c-0.14,0.141 -0.305,0.211 -0.492,0.211Z" style="fill-rule:nonzero;"/><path d="M102.038,114.055c-1.282,0 -2.493,-0.243 -3.634,-0.727c-1.141,-0.485 -2.134,-1.149 -2.978,-1.993c-0.844,-0.844 -1.509,-1.837 -1.993,-2.978c-0.485,-1.141 -0.727,-2.353 -0.727,-3.634l0,-27.855c0,-0.187 0.07,-0.352 0.211,-0.492c0.141,-0.141 0.305,-0.211 0.492,-0.211c0.188,0 0.352,0.07 0.493,0.211c0.141,0.14 0.211,0.305 0.211,0.492l0,27.855c0,1.094 0.211,2.118 0.633,3.071c0.422,0.954 0.992,1.79 1.712,2.509c0.719,0.719 1.555,1.29 2.508,1.712c0.954,0.422 1.978,0.633 3.072,0.633c1.094,0 2.126,-0.211 3.095,-0.633c0.969,-0.422 1.813,-0.993 2.532,-1.712c0.719,-0.719 1.29,-1.555 1.712,-2.509c0.422,-0.953 0.633,-1.977 0.633,-3.071l0,-1.642c0,-0.187 0.062,-0.351 0.187,-0.492c0.125,-0.141 0.297,-0.211 0.516,-0.211c0.188,0 0.352,0.07 0.492,0.211c0.141,0.141 0.211,0.305 0.211,0.492l0,1.642c0,1.281 -0.25,2.493 -0.75,3.634c-0.5,1.141 -1.172,2.134 -2.016,2.978c-0.844,0.844 -1.837,1.508 -2.978,1.993c-1.141,0.484 -2.352,0.727 -3.634,0.727Zm4.455,-22.181l-13.084,0c-0.187,0 -0.351,-0.063 -0.492,-0.188c-0.141,-0.125 -0.211,-0.297 -0.211,-0.515c0,-0.188 0.07,-0.352 0.211,-0.493c0.141,-0.14 0.305,-0.211 0.492,-0.211l13.084,0c0.187,0 0.351,0.071 0.492,0.211c0.141,0.141 0.211,0.305 0.211,0.493c0,0.218 -0.07,0.39 -0.211,0.515c-0.141,0.125 -0.305,0.188 -0.492,0.188Z" style="fill-rule:nonzero;"/><path d="M121.17,114.055c-0.187,0 -0.351,-0.071 -0.492,-0.212c-0.141,-0.14 -0.211,-0.304 -0.211,-0.492l0,-23.165c0,-0.188 0.07,-0.352 0.211,-0.493c0.141,-0.14 0.305,-0.211 0.492,-0.211c0.188,0 0.352,0.071 0.493,0.211c0.14,0.141 0.211,0.305 0.211,0.493l0,23.165c0,0.188 -0.071,0.352 -0.211,0.492c-0.141,0.141 -0.305,0.212 -0.493,0.212Zm0,-28.559c-0.187,0 -0.351,-0.07 -0.492,-0.211c-0.141,-0.14 -0.211,-0.304 -0.211,-0.492l0,-1.641c0,-0.188 0.07,-0.352 0.211,-0.493c0.141,-0.14 0.305,-0.211 0.492,-0.211c0.188,0 0.352,0.071 0.493,0.211c0.14,0.141 0.211,0.305 0.211,0.493l0,1.641c0,0.188 -0.071,0.352 -0.211,0.492c-0.141,0.141 -0.305,0.211 -0.493,0.211Z" style="fill-rule:nonzero;"/><path d="M142.788,114.055c-1.594,0 -3.11,-0.321 -4.549,-0.962c-1.438,-0.641 -2.719,-1.555 -3.845,-2.743c-1.125,-1.188 -1.985,-2.54 -2.579,-4.056c-0.594,-1.517 -0.891,-3.119 -0.891,-4.807c0,-1.688 0.297,-3.29 0.891,-4.806c0.594,-1.517 1.454,-2.869 2.579,-4.057c1.126,-1.188 2.407,-2.094 3.845,-2.72c1.439,-0.625 2.955,-0.937 4.549,-0.937c1.594,0 3.119,0.312 4.572,0.937c1.454,0.626 2.743,1.532 3.869,2.72c1.125,1.188 1.985,2.54 2.579,4.057c0.594,1.516 0.891,3.118 0.891,4.806c0,1.688 -0.297,3.29 -0.891,4.807c-0.594,1.516 -1.454,2.868 -2.579,4.056c-1.126,1.188 -2.415,2.102 -3.869,2.743c-1.453,0.641 -2.978,0.962 -4.572,0.962Zm0,-23.682c-1.438,0 -2.79,0.29 -4.056,0.868c-1.266,0.578 -2.376,1.375 -3.33,2.391c-0.953,1.016 -1.703,2.197 -2.25,3.541c-0.548,1.344 -0.821,2.782 -0.821,4.314c0,1.532 0.273,2.978 0.821,4.338c0.547,1.36 1.297,2.54 2.25,3.54c0.954,1.001 2.064,1.798 3.33,2.392c1.266,0.594 2.618,0.891 4.056,0.891c1.438,0 2.798,-0.297 4.08,-0.891c1.282,-0.594 2.399,-1.391 3.353,-2.392c0.953,-1 1.704,-2.18 2.251,-3.54c0.547,-1.36 0.82,-2.806 0.82,-4.338c0,-1.532 -0.273,-2.97 -0.82,-4.314c-0.547,-1.344 -1.298,-2.525 -2.251,-3.541c-0.954,-1.016 -2.071,-1.813 -3.353,-2.391c-1.282,-0.578 -2.642,-0.868 -4.08,-0.868Zm11.208,23.682c-0.188,0 -0.352,-0.071 -0.493,-0.212c-0.14,-0.14 -0.211,-0.304 -0.211,-0.492l0,-11.864c0,-0.187 0.071,-0.352 0.211,-0.492c0.141,-0.141 0.305,-0.211 0.493,-0.211c0.187,0 0.351,0.07 0.492,0.211c0.141,0.14 0.211,0.305 0.211,0.492l0,11.864c0,0.188 -0.07,0.352 -0.211,0.492c-0.141,0.141 -0.305,0.212 -0.492,0.212Z" style="fill-rule:nonzero;"/><path d="M171.534,114.055c-1.282,0 -2.493,-0.243 -3.635,-0.727c-1.141,-0.485 -2.133,-1.149 -2.977,-1.993c-0.844,-0.844 -1.516,-1.837 -2.017,-2.978c-0.5,-1.141 -0.75,-2.353 -0.75,-3.634l0,-27.855c0,-0.187 0.07,-0.352 0.211,-0.492c0.141,-0.141 0.305,-0.211 0.492,-0.211c0.219,0 0.391,0.07 0.516,0.211c0.125,0.14 0.188,0.305 0.188,0.492l0,27.855c0,1.094 0.211,2.118 0.633,3.071c0.422,0.954 0.992,1.79 1.712,2.509c0.719,0.719 1.563,1.29 2.532,1.712c0.969,0.422 2.001,0.633 3.095,0.633c0.187,0 0.351,0.07 0.492,0.211c0.141,0.14 0.211,0.305 0.211,0.492c0,0.188 -0.07,0.352 -0.211,0.492c-0.141,0.141 -0.305,0.212 -0.492,0.212Z" style="fill-rule:nonzero;"/><path d="M180.865,114.055c-0.187,0 -0.351,-0.071 -0.492,-0.212c-0.141,-0.14 -0.211,-0.304 -0.211,-0.492l0,-23.165c0,-0.188 0.07,-0.352 0.211,-0.493c0.141,-0.14 0.305,-0.211 0.492,-0.211c0.188,0 0.352,0.071 0.493,0.211c0.141,0.141 0.211,0.305 0.211,0.493l0,23.165c0,0.188 -0.07,0.352 -0.211,0.492c-0.141,0.141 -0.305,0.212 -0.493,0.212Zm0,-28.559c-0.187,0 -0.351,-0.07 -0.492,-0.211c-0.141,-0.14 -0.211,-0.304 -0.211,-0.492l0,-1.641c0,-0.188 0.07,-0.352 0.211,-0.493c0.141,-0.14 0.305,-0.211 0.492,-0.211c0.188,0 0.352,0.071 0.493,0.211c0.141,0.141 0.211,0.305 0.211,0.493l0,1.641c0,0.188 -0.07,0.352 -0.211,0.492c-0.141,0.141 -0.305,0.211 -0.493,0.211Z" style="fill-rule:nonzero;"/><path d="M199.154,114.055c-2.939,0 -5.158,-0.813 -6.659,-2.439c-1.501,-1.688 -2.11,-4.033 -1.829,-7.034c0.063,-0.5 0.328,-0.719 0.797,-0.656c0.188,0.031 0.344,0.117 0.469,0.257c0.125,0.141 0.172,0.305 0.141,0.493c-0.219,2.657 0.281,4.658 1.501,6.002c1.156,1.313 3.016,1.97 5.58,1.97c0.969,0 1.813,-0.149 2.532,-0.446c0.719,-0.297 1.321,-0.672 1.806,-1.125c0.484,-0.454 0.859,-0.962 1.125,-1.524c0.266,-0.563 0.43,-1.126 0.492,-1.688c0.094,-0.626 0.071,-1.267 -0.07,-1.923c-0.141,-0.657 -0.399,-1.274 -0.774,-1.852c-0.375,-0.579 -0.875,-1.102 -1.5,-1.571c-0.626,-0.469 -1.391,-0.829 -2.298,-1.079l-4.455,-1.125c-1.469,-0.375 -2.595,-1.173 -3.376,-2.392c-0.688,-1.125 -0.938,-2.36 -0.751,-3.704c0.188,-1.563 0.891,-2.908 2.111,-4.033c1.281,-1.188 2.891,-1.782 4.83,-1.782c0.938,0 1.836,0.156 2.696,0.469c0.86,0.312 1.602,0.75 2.227,1.313c0.719,0.625 1.259,1.352 1.618,2.18c0.36,0.829 0.54,1.696 0.54,2.603c0,0.219 -0.071,0.391 -0.211,0.516c-0.141,0.125 -0.305,0.187 -0.493,0.187c-0.187,0 -0.352,-0.062 -0.492,-0.187c-0.141,-0.125 -0.211,-0.297 -0.211,-0.516c0,-0.719 -0.141,-1.391 -0.422,-2.016c-0.282,-0.626 -0.68,-1.173 -1.196,-1.642c-0.516,-0.469 -1.118,-0.836 -1.805,-1.102c-0.688,-0.265 -1.439,-0.398 -2.251,-0.398c-0.844,0 -1.595,0.133 -2.251,0.398c-0.657,0.266 -1.219,0.618 -1.688,1.055c-0.469,0.438 -0.837,0.93 -1.102,1.478c-0.266,0.547 -0.43,1.086 -0.493,1.617c-0.062,0.438 -0.054,0.891 0.024,1.36c0.078,0.469 0.234,0.915 0.469,1.337c0.234,0.422 0.562,0.805 0.984,1.149c0.422,0.343 0.962,0.594 1.618,0.75l4.455,1.125c2.001,0.532 3.533,1.595 4.596,3.189c0.969,1.438 1.328,3.032 1.078,4.783c-0.094,0.813 -0.328,1.587 -0.703,2.321c-0.375,0.735 -0.86,1.368 -1.454,1.9c-1.375,1.188 -3.111,1.782 -5.205,1.782Z" style="fill-rule:nonzero;"/><path d="M223.914,114.055c-1.595,0 -3.111,-0.321 -4.549,-0.962c-1.438,-0.641 -2.72,-1.555 -3.845,-2.743c-1.126,-1.188 -1.985,-2.54 -2.579,-4.056c-0.594,-1.517 -0.891,-3.119 -0.891,-4.807c0,-1.688 0.297,-3.29 0.891,-4.806c0.594,-1.517 1.453,-2.869 2.579,-4.057c1.125,-1.188 2.407,-2.094 3.845,-2.72c1.438,-0.625 2.954,-0.937 4.549,-0.937c1.594,0 3.118,0.312 4.572,0.937c1.453,0.626 2.743,1.532 3.868,2.72c1.126,1.188 1.986,2.54 2.579,4.057c0.594,1.516 0.891,3.118 0.891,4.806c0,1.688 -0.297,3.29 -0.891,4.807c-0.593,1.516 -1.453,2.868 -2.579,4.056c-1.125,1.188 -2.415,2.102 -3.868,2.743c-1.454,0.641 -2.978,0.962 -4.572,0.962Zm0,-23.682c-1.438,0 -2.791,0.29 -4.057,0.868c-1.266,0.578 -2.376,1.375 -3.329,2.391c-0.954,1.016 -1.704,2.197 -2.251,3.541c-0.547,1.344 -0.821,2.782 -0.821,4.314c0,1.532 0.274,2.978 0.821,4.338c0.547,1.36 1.297,2.54 2.251,3.54c0.953,1.001 2.063,1.798 3.329,2.392c1.266,0.594 2.619,0.891 4.057,0.891c1.438,0 2.798,-0.297 4.079,-0.891c1.282,-0.594 2.4,-1.391 3.353,-2.392c0.954,-1 1.704,-2.18 2.251,-3.54c0.547,-1.36 0.821,-2.806 0.821,-4.338c0,-1.532 -0.274,-2.97 -0.821,-4.314c-0.547,-1.344 -1.297,-2.525 -2.251,-3.541c-0.953,-1.016 -2.071,-1.813 -3.353,-2.391c-1.281,-0.578 -2.641,-0.868 -4.079,-0.868Zm11.207,23.682c-0.188,0 -0.352,-0.071 -0.492,-0.212c-0.141,-0.14 -0.211,-0.304 -0.211,-0.492l0,-11.864c0,-0.187 0.07,-0.352 0.211,-0.492c0.14,-0.141 0.304,-0.211 0.492,-0.211c0.188,0 0.352,0.07 0.492,0.211c0.141,0.14 0.211,0.305 0.211,0.492l0,11.864c0,0.188 -0.07,0.352 -0.211,0.492c-0.14,0.141 -0.304,0.212 -0.492,0.212Z" style="fill-rule:nonzero;"/><path d="M252.565,114.055c-1.281,0 -2.493,-0.243 -3.634,-0.727c-1.141,-0.485 -2.133,-1.149 -2.978,-1.993c-0.844,-0.844 -1.508,-1.837 -1.993,-2.978c-0.484,-1.141 -0.726,-2.353 -0.726,-3.634l0,-27.855c0,-0.187 0.07,-0.352 0.211,-0.492c0.14,-0.141 0.304,-0.211 0.492,-0.211c0.188,0 0.352,0.07 0.492,0.211c0.141,0.14 0.211,0.305 0.211,0.492l0,27.855c0,1.094 0.211,2.118 0.633,3.071c0.423,0.954 0.993,1.79 1.712,2.509c0.719,0.719 1.555,1.29 2.509,1.712c0.953,0.422 1.977,0.633 3.071,0.633c1.095,0 2.126,-0.211 3.095,-0.633c0.969,-0.422 1.814,-0.993 2.533,-1.712c0.719,-0.719 1.289,-1.555 1.711,-2.509c0.422,-0.953 0.633,-1.977 0.633,-3.071l0,-1.642c0,-0.187 0.063,-0.351 0.188,-0.492c0.125,-0.141 0.297,-0.211 0.516,-0.211c0.187,0 0.351,0.07 0.492,0.211c0.141,0.141 0.211,0.305 0.211,0.492l0,1.642c0,1.281 -0.25,2.493 -0.75,3.634c-0.5,1.141 -1.173,2.134 -2.017,2.978c-0.844,0.844 -1.836,1.508 -2.977,1.993c-1.141,0.484 -2.353,0.727 -3.635,0.727Zm4.455,-22.181l-13.083,0c-0.188,0 -0.352,-0.063 -0.492,-0.188c-0.141,-0.125 -0.211,-0.297 -0.211,-0.515c0,-0.188 0.07,-0.352 0.211,-0.493c0.14,-0.14 0.304,-0.211 0.492,-0.211l13.083,0c0.188,0 0.352,0.071 0.493,0.211c0.14,0.141 0.211,0.305 0.211,0.493c0,0.218 -0.071,0.39 -0.211,0.515c-0.141,0.125 -0.305,0.188 -0.493,0.188Z" style="fill-rule:nonzero;"/><path d="M271.698,114.055c-0.188,0 -0.352,-0.071 -0.493,-0.212c-0.14,-0.14 -0.211,-0.304 -0.211,-0.492l0,-23.165c0,-0.188 0.071,-0.352 0.211,-0.493c0.141,-0.14 0.305,-0.211 0.493,-0.211c0.187,0 0.352,0.071 0.492,0.211c0.141,0.141 0.211,0.305 0.211,0.493l0,23.165c0,0.188 -0.07,0.352 -0.211,0.492c-0.14,0.141 -0.305,0.212 -0.492,0.212Zm0,-28.559c-0.188,0 -0.352,-0.07 -0.493,-0.211c-0.14,-0.14 -0.211,-0.304 -0.211,-0.492l0,-1.641c0,-0.188 0.071,-0.352 0.211,-0.493c0.141,-0.14 0.305,-0.211 0.493,-0.211c0.187,0 0.352,0.071 0.492,0.211c0.141,0.141 0.211,0.305 0.211,0.493l0,1.641c0,0.188 -0.07,0.352 -0.211,0.492c-0.14,0.141 -0.305,0.211 -0.492,0.211Z" style="fill-rule:nonzero;"/><path d="M293.316,114.055c-1.595,0 -3.111,-0.321 -4.549,-0.962c-1.438,-0.641 -2.72,-1.555 -3.845,-2.743c-1.126,-1.188 -1.985,-2.54 -2.579,-4.056c-0.594,-1.517 -0.891,-3.119 -0.891,-4.807c0,-1.688 0.297,-3.29 0.891,-4.806c0.594,-1.517 1.453,-2.869 2.579,-4.057c1.125,-1.188 2.407,-2.094 3.845,-2.72c1.438,-0.625 2.954,-0.937 4.549,-0.937c1.594,0 3.118,0.312 4.572,0.937c1.453,0.626 2.743,1.532 3.868,2.72c1.126,1.188 1.986,2.54 2.58,4.057c0.594,1.516 0.891,3.118 0.891,4.806c0,1.688 -0.297,3.29 -0.891,4.807c-0.594,1.516 -1.454,2.868 -2.58,4.056c-1.125,1.188 -2.415,2.102 -3.868,2.743c-1.454,0.641 -2.978,0.962 -4.572,0.962Zm0,-23.682c-1.438,0 -2.79,0.29 -4.057,0.868c-1.266,0.578 -2.376,1.375 -3.329,2.391c-0.954,1.016 -1.704,2.197 -2.251,3.541c-0.547,1.344 -0.821,2.782 -0.821,4.314c0,1.532 0.274,2.978 0.821,4.338c0.547,1.36 1.297,2.54 2.251,3.54c0.953,1.001 2.063,1.798 3.329,2.392c1.267,0.594 2.619,0.891 4.057,0.891c1.438,0 2.798,-0.297 4.079,-0.891c1.282,-0.594 2.4,-1.391 3.353,-2.392c0.954,-1 1.704,-2.18 2.251,-3.54c0.547,-1.36 0.821,-2.806 0.821,-4.338c0,-1.532 -0.274,-2.97 -0.821,-4.314c-0.547,-1.344 -1.297,-2.525 -2.251,-3.541c-0.953,-1.016 -2.071,-1.813 -3.353,-2.391c-1.281,-0.578 -2.641,-0.868 -4.079,-0.868Z" style="fill-rule:nonzero;"/><path d="M330.69,114.055c-0.219,0 -0.391,-0.071 -0.516,-0.212c-0.125,-0.14 -0.188,-0.304 -0.188,-0.492l0,-14.49c0,-1.094 -0.211,-2.126 -0.633,-3.095c-0.422,-0.969 -0.992,-1.813 -1.711,-2.532c-0.719,-0.719 -1.564,-1.29 -2.533,-1.712c-0.969,-0.422 -2,-0.633 -3.095,-0.633c-1.094,0 -2.118,0.211 -3.071,0.633c-0.954,0.422 -1.79,0.993 -2.509,1.712c-0.719,0.719 -1.289,1.563 -1.712,2.532c-0.422,0.969 -0.633,2.001 -0.633,3.095l0,14.49c0,0.188 -0.07,0.352 -0.211,0.492c-0.14,0.141 -0.304,0.212 -0.492,0.212c-0.188,0 -0.352,-0.071 -0.492,-0.212c-0.141,-0.14 -0.211,-0.304 -0.211,-0.492l0,-14.49c0,-1.282 0.242,-2.493 0.726,-3.634c0.485,-1.141 1.149,-2.134 1.993,-2.978c0.845,-0.844 1.837,-1.516 2.978,-2.016c1.141,-0.5 2.353,-0.751 3.634,-0.751c1.282,0 2.494,0.251 3.635,0.751c1.141,0.5 2.133,1.172 2.977,2.016c0.844,0.844 1.517,1.837 2.017,2.978c0.5,1.141 0.75,2.352 0.75,3.634l0,14.49c0,0.188 -0.07,0.352 -0.211,0.492c-0.141,0.141 -0.305,0.212 -0.492,0.212Z" style="fill-rule:nonzero;"/><rect x="0.5" y="44.5" width="370" height="100" style="fill:none;stroke:#000;stroke-width:1px;"/><rect x="146.393" y="178.826" width="370" height="100" style="fill:none;stroke:#000;stroke-width:1px;"/><path d="M220.162,248.381l-21.336,0l0,-38.406c0,-0.187 0.07,-0.352 0.211,-0.492c0.14,-0.141 0.304,-0.211 0.492,-0.211c0.219,0 0.391,0.07 0.516,0.211c0.125,0.14 0.187,0.305 0.187,0.492l0,36.999l19.93,0c0.188,0 0.352,0.07 0.492,0.211c0.141,0.141 0.211,0.305 0.211,0.492c0,0.188 -0.07,0.352 -0.211,0.493c-0.14,0.14 -0.304,0.211 -0.492,0.211Z" style="fill-rule:nonzero;"/><path d="M238.497,248.381c-1.594,0 -3.11,-0.321 -4.548,-0.962c-1.438,-0.64 -2.72,-1.555 -3.846,-2.743c-1.125,-1.188 -1.985,-2.54 -2.579,-4.056c-0.594,-1.516 -0.891,-3.119 -0.891,-4.807c0,-1.688 0.297,-3.29 0.891,-4.806c0.594,-1.516 1.454,-2.869 2.579,-4.057c1.126,-1.187 2.408,-2.094 3.846,-2.719c1.438,-0.626 2.954,-0.938 4.548,-0.938c1.595,0 3.119,0.312 4.572,0.938c1.454,0.625 2.744,1.532 3.869,2.719c1.126,1.188 1.985,2.541 2.579,4.057c0.594,1.516 0.891,3.118 0.891,4.806c0,1.688 -0.297,3.291 -0.891,4.807c-0.594,1.516 -1.453,2.868 -2.579,4.056c-1.125,1.188 -2.415,2.103 -3.869,2.743c-1.453,0.641 -2.977,0.962 -4.572,0.962Zm0,-23.681c-1.438,0 -2.79,0.289 -4.056,0.867c-1.266,0.578 -2.376,1.376 -3.329,2.392c-0.954,1.016 -1.704,2.196 -2.251,3.54c-0.547,1.344 -0.821,2.782 -0.821,4.314c0,1.532 0.274,2.978 0.821,4.338c0.547,1.36 1.297,2.54 2.251,3.54c0.953,1.001 2.063,1.798 3.329,2.392c1.266,0.594 2.618,0.891 4.056,0.891c1.438,0 2.798,-0.297 4.08,-0.891c1.282,-0.594 2.399,-1.391 3.353,-2.392c0.953,-1 1.704,-2.18 2.251,-3.54c0.547,-1.36 0.82,-2.806 0.82,-4.338c0,-1.532 -0.273,-2.97 -0.82,-4.314c-0.547,-1.344 -1.298,-2.524 -2.251,-3.54c-0.954,-1.016 -2.071,-1.814 -3.353,-2.392c-1.282,-0.578 -2.642,-0.867 -4.08,-0.867Zm11.208,23.681c-0.188,0 -0.352,-0.071 -0.492,-0.211c-0.141,-0.141 -0.212,-0.305 -0.212,-0.493l0,-11.864c0,-0.187 0.071,-0.351 0.212,-0.492c0.14,-0.141 0.304,-0.211 0.492,-0.211c0.187,0 0.352,0.07 0.492,0.211c0.141,0.141 0.211,0.305 0.211,0.492l0,11.864c0,0.188 -0.07,0.352 -0.211,0.493c-0.14,0.14 -0.305,0.211 -0.492,0.211Z" style="fill-rule:nonzero;"/><path d="M277.325,248.381c-0.219,0 -0.391,-0.071 -0.516,-0.211c-0.125,-0.141 -0.187,-0.305 -0.187,-0.493l0,-14.49c0,-1.094 -0.211,-2.126 -0.633,-3.095c-0.422,-0.969 -0.993,-1.813 -1.712,-2.532c-0.719,-0.719 -1.563,-1.289 -2.532,-1.712c-0.969,-0.422 -2.001,-0.633 -3.095,-0.633c-1.094,0 -2.118,0.211 -3.072,0.633c-0.953,0.423 -1.789,0.993 -2.509,1.712c-0.719,0.719 -1.289,1.563 -1.711,2.532c-0.422,0.969 -0.633,2.001 -0.633,3.095l0,14.49c0,0.188 -0.071,0.352 -0.211,0.493c-0.141,0.14 -0.305,0.211 -0.493,0.211c-0.187,0 -0.351,-0.071 -0.492,-0.211c-0.141,-0.141 -0.211,-0.305 -0.211,-0.493l0,-14.49c0,-1.281 0.242,-2.493 0.727,-3.634c0.484,-1.141 1.149,-2.134 1.993,-2.978c0.844,-0.844 1.836,-1.516 2.978,-2.016c1.141,-0.5 2.352,-0.75 3.634,-0.75c1.282,0 2.493,0.25 3.634,0.75c1.141,0.5 2.134,1.172 2.978,2.016c0.844,0.844 1.516,1.837 2.016,2.978c0.5,1.141 0.75,2.353 0.75,3.634l0,14.49c0,0.188 -0.07,0.352 -0.211,0.493c-0.14,0.14 -0.304,0.211 -0.492,0.211Z" style="fill-rule:nonzero;"/><path d="M299.412,248.381c-1.595,0 -3.119,-0.321 -4.572,-0.962c-1.454,-0.64 -2.744,-1.555 -3.869,-2.743c-1.094,-1.188 -1.946,-2.54 -2.556,-4.056c-0.609,-1.516 -0.914,-3.119 -0.914,-4.807c0,-1.688 0.305,-3.29 0.914,-4.806c0.61,-1.516 1.462,-2.869 2.556,-4.057c1.125,-1.187 2.415,-2.094 3.869,-2.719c1.453,-0.626 2.977,-0.938 4.572,-0.938c0.969,0 1.93,0.117 2.884,0.351c0.953,0.235 1.852,0.602 2.696,1.102c0.813,0.469 1.579,1.032 2.298,1.689c0.719,0.656 1.344,1.391 1.876,2.204c0.093,0.156 0.125,0.328 0.093,0.515c-0.031,0.188 -0.125,0.329 -0.281,0.422c-0.156,0.126 -0.336,0.165 -0.539,0.118c-0.203,-0.047 -0.352,-0.149 -0.446,-0.305c-1,-1.501 -2.258,-2.657 -3.775,-3.47c-1.516,-0.813 -3.118,-1.219 -4.806,-1.219c-1.438,0 -2.798,0.289 -4.08,0.867c-1.282,0.578 -2.399,1.376 -3.353,2.392c-0.953,1.016 -1.704,2.196 -2.251,3.54c-0.547,1.344 -0.82,2.782 -0.82,4.314c0,1.532 0.273,2.978 0.82,4.338c0.547,1.36 1.298,2.54 2.251,3.54c0.954,1.001 2.071,1.798 3.353,2.392c1.282,0.594 2.642,0.891 4.08,0.891c1.688,0 3.29,-0.414 4.806,-1.243c1.517,-0.828 2.775,-1.993 3.775,-3.493c0.094,-0.157 0.243,-0.25 0.446,-0.282c0.203,-0.031 0.383,0 0.539,0.094c0.344,0.281 0.406,0.61 0.188,0.985c-0.532,0.813 -1.157,1.547 -1.876,2.204c-0.719,0.656 -1.485,1.219 -2.298,1.688c-1.751,0.969 -3.611,1.454 -5.58,1.454Z" style="fill-rule:nonzero;"/><path d="M327.735,248.24c-1.594,0 -3.118,-0.32 -4.572,-0.961c-1.453,-0.641 -2.743,-1.556 -3.868,-2.744c-1.095,-1.188 -1.947,-2.54 -2.556,-4.056c-0.61,-1.516 -0.915,-3.118 -0.915,-4.806c0,-1.689 0.305,-3.291 0.915,-4.807c0.609,-1.516 1.461,-2.868 2.556,-4.056c1.125,-1.188 2.415,-2.103 3.868,-2.743c1.454,-0.641 2.978,-0.962 4.572,-0.962c1.595,0 3.119,0.321 4.572,0.962c1.454,0.64 2.744,1.555 3.869,2.743c1.094,1.188 1.946,2.54 2.556,4.056c0.609,1.516 0.914,3.118 0.914,4.807l0,0.703l-22.368,0c0.094,1.469 0.422,2.837 0.985,4.103c0.563,1.266 1.313,2.368 2.251,3.306c0.938,0.938 2.024,1.681 3.259,2.228c1.235,0.547 2.556,0.82 3.962,0.82c1.063,0 2.103,-0.164 3.119,-0.492c1.016,-0.328 1.946,-0.797 2.79,-1.407c0.844,-0.61 1.594,-1.352 2.251,-2.227c0.656,-0.876 1.188,-1.845 1.594,-2.908c0.156,-0.437 0.453,-0.578 0.891,-0.422c0.438,0.157 0.578,0.453 0.422,0.891c-0.844,2.314 -2.282,4.221 -4.314,5.721c-2.032,1.501 -4.283,2.251 -6.753,2.251Zm-10.457,-13.271l20.915,0c-0.094,-1.438 -0.43,-2.798 -1.009,-4.079c-0.578,-1.282 -1.336,-2.392 -2.274,-3.33c-0.938,-0.938 -2.016,-1.68 -3.236,-2.227c-1.219,-0.547 -2.532,-0.821 -3.939,-0.821c-1.406,0 -2.727,0.274 -3.962,0.821c-1.235,0.547 -2.321,1.289 -3.259,2.227c-0.938,0.938 -1.688,2.048 -2.251,3.33c-0.563,1.281 -0.891,2.641 -0.985,4.079Z" style="fill-rule:nonzero;"/><path d="M347.055,248.381c-0.187,0 -0.351,-0.071 -0.492,-0.211c-0.141,-0.141 -0.211,-0.305 -0.211,-0.493l0,-14.49c0,-1.281 0.25,-2.493 0.75,-3.634c0.5,-1.141 1.173,-2.134 2.017,-2.978c0.844,-0.844 1.836,-1.516 2.977,-2.016c1.142,-0.5 2.353,-0.75 3.635,-0.75c1.219,0 2.391,0.234 3.517,0.703c1.125,0.469 2.126,1.125 3.001,1.97c0.156,0.156 0.234,0.328 0.234,0.515c0,0.188 -0.078,0.36 -0.234,0.516c-0.125,0.125 -0.282,0.196 -0.469,0.211c-0.188,0.016 -0.36,-0.055 -0.516,-0.211c-0.75,-0.719 -1.602,-1.282 -2.556,-1.688c-0.953,-0.406 -1.946,-0.61 -2.977,-0.61c-1.095,0 -2.126,0.211 -3.095,0.633c-0.969,0.423 -1.813,0.993 -2.533,1.712c-0.719,0.719 -1.289,1.563 -1.711,2.532c-0.422,0.969 -0.633,2.001 -0.633,3.095l0,14.49c0,0.188 -0.063,0.352 -0.188,0.493c-0.125,0.14 -0.297,0.211 -0.516,0.211Zm29.403,0c-0.219,0 -0.391,-0.071 -0.516,-0.211c-0.125,-0.141 -0.188,-0.305 -0.188,-0.493l0,-14.49c0,-1.094 -0.211,-2.126 -0.633,-3.095c-0.422,-0.969 -0.993,-1.813 -1.712,-2.532c-0.719,-0.719 -1.563,-1.289 -2.532,-1.712c-0.969,-0.422 -2.001,-0.633 -3.095,-0.633c-1.094,0 -2.118,0.211 -3.071,0.633c-0.954,0.423 -1.79,0.993 -2.509,1.712c-0.719,0.719 -1.29,1.563 -1.712,2.532c-0.422,0.969 -0.633,2.001 -0.633,3.095l0,14.49c0,0.188 -0.07,0.352 -0.211,0.493c-0.14,0.14 -0.305,0.211 -0.492,0.211c-0.188,0 -0.352,-0.071 -0.492,-0.211c-0.141,-0.141 -0.212,-0.305 -0.212,-0.493l0,-14.49c0,-1.281 0.243,-2.493 0.727,-3.634c0.485,-1.141 1.149,-2.134 1.993,-2.978c0.844,-0.844 1.837,-1.516 2.978,-2.016c1.141,-0.5 2.353,-0.75 3.634,-0.75c1.282,0 2.493,0.25 3.634,0.75c1.142,0.5 2.134,1.172 2.978,2.016c0.844,0.844 1.516,1.837 2.017,2.978c0.5,1.141 0.75,2.353 0.75,3.634l0,14.49c0,0.188 -0.07,0.352 -0.211,0.493c-0.141,0.14 -0.305,0.211 -0.492,0.211Z" style="fill-rule:nonzero;"/><path d="M396.059,248.24c-1.594,0 -3.118,-0.32 -4.572,-0.961c-1.454,-0.641 -2.743,-1.556 -3.869,-2.744c-1.094,-1.188 -1.946,-2.54 -2.556,-4.056c-0.609,-1.516 -0.914,-3.118 -0.914,-4.806c0,-1.689 0.305,-3.291 0.914,-4.807c0.61,-1.516 1.462,-2.868 2.556,-4.056c1.126,-1.188 2.415,-2.103 3.869,-2.743c1.454,-0.641 2.978,-0.962 4.572,-0.962c1.594,0 3.118,0.321 4.572,0.962c1.454,0.64 2.743,1.555 3.869,2.743c1.094,1.188 1.946,2.54 2.555,4.056c0.61,1.516 0.915,3.118 0.915,4.807l0,0.703l-22.368,0c0.094,1.469 0.422,2.837 0.984,4.103c0.563,1.266 1.313,2.368 2.251,3.306c0.938,0.938 2.025,1.681 3.259,2.228c1.235,0.547 2.556,0.82 3.963,0.82c1.063,0 2.102,-0.164 3.118,-0.492c1.016,-0.328 1.946,-0.797 2.79,-1.407c0.845,-0.61 1.595,-1.352 2.251,-2.227c0.657,-0.876 1.188,-1.845 1.595,-2.908c0.156,-0.437 0.453,-0.578 0.891,-0.422c0.437,0.157 0.578,0.453 0.422,0.891c-0.844,2.314 -2.282,4.221 -4.314,5.721c-2.032,1.501 -4.283,2.251 -6.753,2.251Zm-10.457,-13.271l20.914,0c-0.094,-1.438 -0.43,-2.798 -1.008,-4.079c-0.578,-1.282 -1.337,-2.392 -2.274,-3.33c-0.938,-0.938 -2.017,-1.68 -3.236,-2.227c-1.219,-0.547 -2.532,-0.821 -3.939,-0.821c-1.407,0 -2.728,0.274 -3.963,0.821c-1.234,0.547 -2.321,1.289 -3.259,2.227c-0.938,0.938 -1.688,2.048 -2.251,3.33c-0.562,1.281 -0.89,2.641 -0.984,4.079Z" style="fill-rule:nonzero;"/><path d="M434.277,248.381c-0.219,0 -0.391,-0.071 -0.516,-0.211c-0.125,-0.141 -0.187,-0.305 -0.187,-0.493l0,-14.49c0,-1.094 -0.211,-2.126 -0.633,-3.095c-0.423,-0.969 -0.993,-1.813 -1.712,-2.532c-0.719,-0.719 -1.563,-1.289 -2.532,-1.712c-0.969,-0.422 -2.001,-0.633 -3.095,-0.633c-1.094,0 -2.118,0.211 -3.072,0.633c-0.953,0.423 -1.79,0.993 -2.509,1.712c-0.719,0.719 -1.289,1.563 -1.711,2.532c-0.422,0.969 -0.633,2.001 -0.633,3.095l0,14.49c0,0.188 -0.071,0.352 -0.211,0.493c-0.141,0.14 -0.305,0.211 -0.493,0.211c-0.187,0 -0.351,-0.071 -0.492,-0.211c-0.141,-0.141 -0.211,-0.305 -0.211,-0.493l0,-14.49c0,-1.281 0.242,-2.493 0.727,-3.634c0.484,-1.141 1.149,-2.134 1.993,-2.978c0.844,-0.844 1.836,-1.516 2.977,-2.016c1.142,-0.5 2.353,-0.75 3.635,-0.75c1.281,0 2.493,0.25 3.634,0.75c1.141,0.5 2.134,1.172 2.978,2.016c0.844,0.844 1.516,1.837 2.016,2.978c0.5,1.141 0.75,2.353 0.75,3.634l0,14.49c0,0.188 -0.07,0.352 -0.211,0.493c-0.14,0.14 -0.304,0.211 -0.492,0.211Z" style="fill-rule:nonzero;"/><path d="M454.582,248.381c-1.282,0 -2.493,-0.243 -3.634,-0.727c-1.142,-0.485 -2.134,-1.149 -2.978,-1.993c-0.844,-0.844 -1.509,-1.837 -1.993,-2.978c-0.485,-1.141 -0.727,-2.352 -0.727,-3.634l0,-27.855c0,-0.187 0.07,-0.351 0.211,-0.492c0.141,-0.141 0.305,-0.211 0.492,-0.211c0.188,0 0.352,0.07 0.493,0.211c0.14,0.141 0.211,0.305 0.211,0.492l0,27.855c0,1.094 0.211,2.118 0.633,3.071c0.422,0.954 0.992,1.79 1.711,2.509c0.72,0.719 1.556,1.29 2.509,1.712c0.954,0.422 1.978,0.633 3.072,0.633c1.094,0 2.126,-0.211 3.095,-0.633c0.969,-0.422 1.813,-0.993 2.532,-1.712c0.719,-0.719 1.29,-1.555 1.712,-2.509c0.422,-0.953 0.633,-1.977 0.633,-3.071l0,-1.641c0,-0.188 0.062,-0.352 0.187,-0.493c0.125,-0.14 0.297,-0.211 0.516,-0.211c0.188,0 0.352,0.071 0.492,0.211c0.141,0.141 0.211,0.305 0.211,0.493l0,1.641c0,1.282 -0.25,2.493 -0.75,3.634c-0.5,1.141 -1.172,2.134 -2.016,2.978c-0.844,0.844 -1.837,1.508 -2.978,1.993c-1.141,0.484 -2.352,0.727 -3.634,0.727Zm4.455,-22.181l-13.084,0c-0.187,0 -0.351,-0.062 -0.492,-0.187c-0.141,-0.125 -0.211,-0.297 -0.211,-0.516c0,-0.188 0.07,-0.352 0.211,-0.493c0.141,-0.14 0.305,-0.211 0.492,-0.211l13.084,0c0.187,0 0.351,0.071 0.492,0.211c0.141,0.141 0.211,0.305 0.211,0.493c0,0.219 -0.07,0.391 -0.211,0.516c-0.141,0.125 -0.305,0.187 -0.492,0.187Z" style="fill-rule:nonzero;"/><path d="M349.869,382.52c-2.532,0 -4.939,-0.516 -7.222,-1.548c-1.094,-0.5 -2.133,-1.094 -3.118,-1.782c-0.985,-0.688 -1.899,-1.485 -2.743,-2.391c-1.657,-1.751 -2.97,-3.814 -3.939,-6.19c-0.969,-2.47 -1.454,-4.987 -1.454,-7.55c0,-2.595 0.485,-5.127 1.454,-7.597c0.969,-2.376 2.282,-4.439 3.939,-6.19c0.844,-0.906 1.758,-1.704 2.743,-2.391c0.985,-0.688 2.024,-1.282 3.118,-1.782c2.283,-1.032 4.69,-1.548 7.222,-1.548c1.501,0 2.986,0.196 4.455,0.586c1.469,0.391 2.86,0.946 4.173,1.665c1.282,0.719 2.47,1.587 3.564,2.603c1.094,1.016 2.048,2.165 2.861,3.446c0.125,0.157 0.164,0.329 0.117,0.516c-0.047,0.188 -0.148,0.344 -0.305,0.469c-0.406,0.219 -0.719,0.141 -0.938,-0.234c-1.625,-2.408 -3.665,-4.283 -6.119,-5.628c-2.454,-1.344 -5.057,-2.016 -7.808,-2.016c-2.345,0 -4.556,0.477 -6.635,1.43c-2.079,0.954 -3.893,2.251 -5.44,3.892c-1.547,1.642 -2.767,3.556 -3.658,5.745c-0.891,2.188 -1.336,4.533 -1.336,7.034c0,2.501 0.445,4.845 1.336,7.034c0.891,2.188 2.111,4.095 3.658,5.721c1.547,1.625 3.361,2.915 5.44,3.868c2.079,0.954 4.29,1.431 6.635,1.431c2.751,0 5.354,-0.672 7.808,-2.017c2.454,-1.344 4.494,-3.22 6.119,-5.627c0.094,-0.156 0.235,-0.258 0.422,-0.305c0.188,-0.047 0.36,-0.008 0.516,0.118c0.157,0.093 0.258,0.234 0.305,0.422c0.047,0.187 0.008,0.359 -0.117,0.515c-0.813,1.282 -1.767,2.431 -2.861,3.447c-1.094,1.016 -2.282,1.884 -3.564,2.603c-1.313,0.719 -2.704,1.274 -4.173,1.664c-1.469,0.391 -2.954,0.587 -4.455,0.587Z" style="fill-rule:nonzero;"/><path d="M381.194,382.52c-1.595,0 -3.111,-0.321 -4.549,-0.962c-1.438,-0.641 -2.72,-1.555 -3.845,-2.743c-1.126,-1.188 -1.985,-2.54 -2.579,-4.056c-0.594,-1.517 -0.891,-3.119 -0.891,-4.807c0,-1.688 0.297,-3.29 0.891,-4.806c0.594,-1.517 1.453,-2.869 2.579,-4.057c1.125,-1.188 2.407,-2.094 3.845,-2.72c1.438,-0.625 2.954,-0.937 4.549,-0.937c1.594,0 3.118,0.312 4.572,0.937c1.454,0.626 2.743,1.532 3.869,2.72c1.125,1.188 1.985,2.54 2.579,4.057c0.594,1.516 0.891,3.118 0.891,4.806c0,1.688 -0.297,3.29 -0.891,4.807c-0.594,1.516 -1.454,2.868 -2.579,4.056c-1.126,1.188 -2.415,2.102 -3.869,2.743c-1.454,0.641 -2.978,0.962 -4.572,0.962Zm0,-23.682c-1.438,0 -2.79,0.29 -4.057,0.868c-1.266,0.578 -2.375,1.375 -3.329,2.391c-0.953,1.016 -1.704,2.197 -2.251,3.541c-0.547,1.344 -0.82,2.782 -0.82,4.314c0,1.532 0.273,2.978 0.82,4.338c0.547,1.36 1.298,2.54 2.251,3.54c0.954,1.001 2.063,1.798 3.329,2.392c1.267,0.594 2.619,0.891 4.057,0.891c1.438,0 2.798,-0.297 4.079,-0.891c1.282,-0.594 2.4,-1.391 3.353,-2.392c0.954,-1 1.704,-2.18 2.251,-3.54c0.547,-1.36 0.821,-2.806 0.821,-4.338c0,-1.532 -0.274,-2.97 -0.821,-4.314c-0.547,-1.344 -1.297,-2.525 -2.251,-3.541c-0.953,-1.016 -2.071,-1.813 -3.353,-2.391c-1.281,-0.578 -2.641,-0.868 -4.079,-0.868Z" style="fill-rule:nonzero;"/><path d="M418.568,382.52c-0.219,0 -0.391,-0.071 -0.516,-0.212c-0.125,-0.14 -0.188,-0.304 -0.188,-0.492l0,-14.49c0,-1.094 -0.211,-2.126 -0.633,-3.095c-0.422,-0.969 -0.992,-1.813 -1.711,-2.532c-0.719,-0.719 -1.563,-1.29 -2.533,-1.712c-0.969,-0.422 -2,-0.633 -3.095,-0.633c-1.094,0 -2.118,0.211 -3.071,0.633c-0.954,0.422 -1.79,0.993 -2.509,1.712c-0.719,0.719 -1.289,1.563 -1.711,2.532c-0.422,0.969 -0.634,2.001 -0.634,3.095l0,14.49c0,0.188 -0.07,0.352 -0.211,0.492c-0.14,0.141 -0.304,0.212 -0.492,0.212c-0.187,0 -0.352,-0.071 -0.492,-0.212c-0.141,-0.14 -0.211,-0.304 -0.211,-0.492l0,-14.49c0,-1.282 0.242,-2.493 0.727,-3.634c0.484,-1.141 1.148,-2.134 1.992,-2.978c0.845,-0.844 1.837,-1.516 2.978,-2.016c1.141,-0.5 2.353,-0.751 3.634,-0.751c1.282,0 2.494,0.251 3.635,0.751c1.141,0.5 2.133,1.172 2.977,2.016c0.844,0.844 1.517,1.837 2.017,2.978c0.5,1.141 0.75,2.352 0.75,3.634l0,14.49c0,0.188 -0.07,0.352 -0.211,0.492c-0.141,0.141 -0.305,0.212 -0.492,0.212Z" style="fill-rule:nonzero;"/><path d="M440.654,382.52c-1.594,0 -3.118,-0.321 -4.572,-0.962c-1.453,-0.641 -2.743,-1.555 -3.868,-2.743c-1.095,-1.188 -1.946,-2.54 -2.556,-4.056c-0.61,-1.517 -0.914,-3.119 -0.914,-4.807c0,-1.688 0.304,-3.29 0.914,-4.806c0.61,-1.517 1.461,-2.869 2.556,-4.057c1.125,-1.188 2.415,-2.094 3.868,-2.72c1.454,-0.625 2.978,-0.937 4.572,-0.937c0.97,0 1.931,0.117 2.884,0.351c0.954,0.235 1.853,0.602 2.697,1.102c0.813,0.469 1.579,1.032 2.298,1.688c0.719,0.657 1.344,1.392 1.875,2.204c0.094,0.157 0.125,0.329 0.094,0.516c-0.031,0.188 -0.125,0.329 -0.281,0.422c-0.157,0.125 -0.336,0.164 -0.54,0.118c-0.203,-0.047 -0.351,-0.149 -0.445,-0.305c-1,-1.501 -2.259,-2.658 -3.775,-3.47c-1.516,-0.813 -3.118,-1.22 -4.807,-1.22c-1.438,0 -2.797,0.29 -4.079,0.868c-1.282,0.578 -2.4,1.375 -3.353,2.391c-0.954,1.016 -1.704,2.197 -2.251,3.541c-0.547,1.344 -0.821,2.782 -0.821,4.314c0,1.532 0.274,2.978 0.821,4.338c0.547,1.36 1.297,2.54 2.251,3.54c0.953,1.001 2.071,1.798 3.353,2.392c1.282,0.594 2.641,0.891 4.079,0.891c1.689,0 3.291,-0.415 4.807,-1.243c1.516,-0.828 2.775,-1.993 3.775,-3.494c0.094,-0.156 0.242,-0.25 0.445,-0.281c0.204,-0.031 0.383,0 0.54,0.094c0.344,0.281 0.406,0.61 0.187,0.985c-0.531,0.812 -1.156,1.547 -1.875,2.204c-0.719,0.656 -1.485,1.219 -2.298,1.688c-1.751,0.969 -3.611,1.454 -5.581,1.454Z" style="fill-rule:nonzero;"/><path d="M468.978,382.379c-1.594,0 -3.118,-0.321 -4.572,-0.961c-1.454,-0.641 -2.743,-1.556 -3.869,-2.744c-1.094,-1.188 -1.946,-2.54 -2.555,-4.056c-0.61,-1.516 -0.915,-3.118 -0.915,-4.807c0,-1.688 0.305,-3.29 0.915,-4.806c0.609,-1.516 1.461,-2.868 2.555,-4.056c1.126,-1.188 2.415,-2.103 3.869,-2.744c1.454,-0.641 2.978,-0.961 4.572,-0.961c1.594,0 3.118,0.32 4.572,0.961c1.454,0.641 2.743,1.556 3.869,2.744c1.094,1.188 1.946,2.54 2.556,4.056c0.609,1.516 0.914,3.118 0.914,4.806l0,0.704l-22.368,0c0.094,1.469 0.422,2.837 0.985,4.103c0.562,1.266 1.313,2.368 2.25,3.306c0.938,0.938 2.025,1.68 3.26,2.227c1.234,0.547 2.555,0.821 3.962,0.821c1.063,0 2.102,-0.164 3.118,-0.492c1.016,-0.329 1.947,-0.798 2.791,-1.407c0.844,-0.61 1.594,-1.352 2.25,-2.228c0.657,-0.875 1.188,-1.844 1.595,-2.907c0.156,-0.438 0.453,-0.578 0.891,-0.422c0.437,0.156 0.578,0.453 0.422,0.891c-0.844,2.313 -2.282,4.22 -4.314,5.721c-2.032,1.501 -4.283,2.251 -6.753,2.251Zm-10.457,-13.271l20.914,0c-0.094,-1.438 -0.43,-2.798 -1.008,-4.08c-0.578,-1.281 -1.336,-2.391 -2.274,-3.329c-0.938,-0.938 -2.017,-1.68 -3.236,-2.228c-1.219,-0.547 -2.532,-0.82 -3.939,-0.82c-1.407,0 -2.728,0.273 -3.962,0.82c-1.235,0.548 -2.322,1.29 -3.26,2.228c-0.937,0.938 -1.688,2.048 -2.25,3.329c-0.563,1.282 -0.891,2.642 -0.985,4.08Z" style="fill-rule:nonzero;"/><path d="M500.537,382.52c-1.594,0 -3.118,-0.321 -4.572,-0.962c-1.454,-0.641 -2.743,-1.555 -3.869,-2.743c-1.094,-1.188 -1.946,-2.54 -2.555,-4.056c-0.61,-1.517 -0.915,-3.119 -0.915,-4.807c0,-1.688 0.305,-3.29 0.915,-4.806c0.609,-1.517 1.461,-2.869 2.555,-4.057c1.126,-1.188 2.415,-2.102 3.869,-2.743c1.454,-0.641 2.978,-0.961 4.572,-0.961c1.595,0 3.119,0.32 4.572,0.961c1.454,0.641 2.744,1.555 3.869,2.743c1.094,1.188 1.946,2.54 2.556,4.057c0.609,1.516 0.914,3.118 0.914,4.806c0,1.688 -0.305,3.29 -0.914,4.807c-0.61,1.516 -1.462,2.868 -2.556,4.056c-1.125,1.188 -2.415,2.102 -3.869,2.743c-1.453,0.641 -2.977,0.962 -4.572,0.962Zm0,-23.729c-1.438,0 -2.798,0.297 -4.079,0.891c-1.282,0.594 -2.4,1.392 -3.353,2.392c-0.954,1 -1.704,2.181 -2.251,3.54c-0.547,1.36 -0.821,2.806 -0.821,4.338c0,1.532 0.274,2.978 0.821,4.338c0.547,1.36 1.297,2.54 2.251,3.54c0.953,1.001 2.071,1.798 3.353,2.392c1.281,0.594 2.641,0.891 4.079,0.891c1.438,0 2.798,-0.297 4.08,-0.891c1.282,-0.594 2.399,-1.391 3.353,-2.392c0.953,-1 1.704,-2.18 2.251,-3.54c0.547,-1.36 0.82,-2.806 0.82,-4.338c0,-1.532 -0.273,-2.978 -0.82,-4.338c-0.547,-1.359 -1.298,-2.54 -2.251,-3.54c-0.954,-1 -2.071,-1.798 -3.353,-2.392c-1.282,-0.594 -2.642,-0.891 -4.08,-0.891Zm-11.207,36.483c-0.188,0 -0.352,-0.07 -0.493,-0.211c-0.14,-0.14 -0.211,-0.304 -0.211,-0.492l0,-24.619c0,-0.187 0.071,-0.352 0.211,-0.492c0.141,-0.141 0.305,-0.211 0.493,-0.211c0.219,0 0.391,0.07 0.516,0.211c0.125,0.14 0.187,0.305 0.187,0.492l0,24.619c0,0.188 -0.062,0.352 -0.187,0.492c-0.125,0.141 -0.297,0.211 -0.516,0.211Z" style="fill-rule:nonzero;"/><path d="M530.174,382.52c-1.282,0 -2.493,-0.243 -3.634,-0.727c-1.141,-0.485 -2.134,-1.149 -2.978,-1.993c-0.844,-0.844 -1.509,-1.837 -1.993,-2.978c-0.485,-1.141 -0.727,-2.353 -0.727,-3.634l0,-27.855c0,-0.187 0.07,-0.352 0.211,-0.492c0.141,-0.141 0.305,-0.211 0.492,-0.211c0.188,0 0.352,0.07 0.493,0.211c0.141,0.14 0.211,0.305 0.211,0.492l0,27.855c0,1.094 0.211,2.118 0.633,3.071c0.422,0.954 0.992,1.79 1.712,2.509c0.719,0.719 1.555,1.29 2.508,1.712c0.954,0.422 1.978,0.633 3.072,0.633c1.094,0 2.126,-0.211 3.095,-0.633c0.969,-0.422 1.813,-0.993 2.532,-1.712c0.719,-0.719 1.29,-1.555 1.712,-2.509c0.422,-0.953 0.633,-1.977 0.633,-3.071l0,-1.642c0,-0.187 0.062,-0.351 0.187,-0.492c0.125,-0.141 0.297,-0.211 0.516,-0.211c0.188,0 0.352,0.07 0.492,0.211c0.141,0.141 0.211,0.305 0.211,0.492l0,1.642c0,1.281 -0.25,2.493 -0.75,3.634c-0.5,1.141 -1.172,2.134 -2.016,2.978c-0.844,0.844 -1.837,1.508 -2.978,1.993c-1.141,0.484 -2.352,0.727 -3.634,0.727Zm4.455,-22.181l-13.084,0c-0.187,0 -0.351,-0.063 -0.492,-0.188c-0.141,-0.125 -0.211,-0.297 -0.211,-0.515c0,-0.188 0.07,-0.352 0.211,-0.493c0.141,-0.14 0.305,-0.211 0.492,-0.211l13.084,0c0.187,0 0.351,0.071 0.492,0.211c0.141,0.141 0.211,0.305 0.211,0.493c0,0.218 -0.07,0.39 -0.211,0.515c-0.141,0.125 -0.305,0.188 -0.492,0.188Z" style="fill-rule:nonzero;"/><path d="M549.306,382.52c-0.187,0 -0.351,-0.071 -0.492,-0.212c-0.141,-0.14 -0.211,-0.304 -0.211,-0.492l0,-23.165c0,-0.188 0.07,-0.352 0.211,-0.493c0.141,-0.14 0.305,-0.211 0.492,-0.211c0.188,0 0.352,0.071 0.493,0.211c0.14,0.141 0.211,0.305 0.211,0.493l0,23.165c0,0.188 -0.071,0.352 -0.211,0.492c-0.141,0.141 -0.305,0.212 -0.493,0.212Zm0,-28.559c-0.187,0 -0.351,-0.07 -0.492,-0.211c-0.141,-0.14 -0.211,-0.304 -0.211,-0.492l0,-1.641c0,-0.188 0.07,-0.352 0.211,-0.493c0.141,-0.14 0.305,-0.211 0.492,-0.211c0.188,0 0.352,0.071 0.493,0.211c0.14,0.141 0.211,0.305 0.211,0.493l0,1.641c0,0.188 -0.071,0.352 -0.211,0.492c-0.141,0.141 -0.305,0.211 -0.493,0.211Z" style="fill-rule:nonzero;"/><path d="M570.924,382.52c-1.594,0 -3.11,-0.321 -4.549,-0.962c-1.438,-0.641 -2.719,-1.555 -3.845,-2.743c-1.125,-1.188 -1.985,-2.54 -2.579,-4.056c-0.594,-1.517 -0.891,-3.119 -0.891,-4.807c0,-1.688 0.297,-3.29 0.891,-4.806c0.594,-1.517 1.454,-2.869 2.579,-4.057c1.126,-1.188 2.407,-2.094 3.845,-2.72c1.439,-0.625 2.955,-0.937 4.549,-0.937c1.594,0 3.119,0.312 4.572,0.937c1.454,0.626 2.743,1.532 3.869,2.72c1.125,1.188 1.985,2.54 2.579,4.057c0.594,1.516 0.891,3.118 0.891,4.806c0,1.688 -0.297,3.29 -0.891,4.807c-0.594,1.516 -1.454,2.868 -2.579,4.056c-1.126,1.188 -2.415,2.102 -3.869,2.743c-1.453,0.641 -2.978,0.962 -4.572,0.962Zm0,-23.682c-1.438,0 -2.79,0.29 -4.056,0.868c-1.266,0.578 -2.376,1.375 -3.33,2.391c-0.953,1.016 -1.703,2.197 -2.25,3.541c-0.548,1.344 -0.821,2.782 -0.821,4.314c0,1.532 0.273,2.978 0.821,4.338c0.547,1.36 1.297,2.54 2.25,3.54c0.954,1.001 2.064,1.798 3.33,2.392c1.266,0.594 2.618,0.891 4.056,0.891c1.438,0 2.798,-0.297 4.08,-0.891c1.282,-0.594 2.399,-1.391 3.353,-2.392c0.953,-1 1.703,-2.18 2.251,-3.54c0.547,-1.36 0.82,-2.806 0.82,-4.338c0,-1.532 -0.273,-2.97 -0.82,-4.314c-0.548,-1.344 -1.298,-2.525 -2.251,-3.541c-0.954,-1.016 -2.071,-1.813 -3.353,-2.391c-1.282,-0.578 -2.642,-0.868 -4.08,-0.868Z" style="fill-rule:nonzero;"/><path d="M608.298,382.52c-0.219,0 -0.391,-0.071 -0.516,-0.212c-0.125,-0.14 -0.187,-0.304 -0.187,-0.492l0,-14.49c0,-1.094 -0.211,-2.126 -0.633,-3.095c-0.422,-0.969 -0.993,-1.813 -1.712,-2.532c-0.719,-0.719 -1.563,-1.29 -2.532,-1.712c-0.969,-0.422 -2.001,-0.633 -3.095,-0.633c-1.094,0 -2.118,0.211 -3.072,0.633c-0.953,0.422 -1.789,0.993 -2.508,1.712c-0.72,0.719 -1.29,1.563 -1.712,2.532c-0.422,0.969 -0.633,2.001 -0.633,3.095l0,14.49c0,0.188 -0.07,0.352 -0.211,0.492c-0.141,0.141 -0.305,0.212 -0.493,0.212c-0.187,0 -0.351,-0.071 -0.492,-0.212c-0.141,-0.14 -0.211,-0.304 -0.211,-0.492l0,-14.49c0,-1.282 0.242,-2.493 0.727,-3.634c0.484,-1.141 1.149,-2.134 1.993,-2.978c0.844,-0.844 1.837,-1.516 2.978,-2.016c1.141,-0.5 2.352,-0.751 3.634,-0.751c1.282,0 2.493,0.251 3.634,0.751c1.141,0.5 2.134,1.172 2.978,2.016c0.844,0.844 1.516,1.837 2.016,2.978c0.5,1.141 0.75,2.352 0.75,3.634l0,14.49c0,0.188 -0.07,0.352 -0.211,0.492c-0.14,0.141 -0.304,0.212 -0.492,0.212Z" style="fill-rule:nonzero;"/><path d="M476.153,504.251c-0.188,0 -0.352,-0.071 -0.493,-0.211c-0.14,-0.141 -0.211,-0.305 -0.211,-0.493c0,-0.187 0.071,-0.352 0.211,-0.492c0.141,-0.141 0.305,-0.211 0.493,-0.211c1.5,0 2.899,-0.305 4.197,-0.915c1.297,-0.609 2.438,-1.43 3.423,-2.462c0.985,-1.031 1.758,-2.243 2.321,-3.634c0.563,-1.391 0.844,-2.868 0.844,-4.431c0,-1.595 -0.281,-3.087 -0.844,-4.478c-0.563,-1.392 -1.336,-2.603 -2.321,-3.635c-0.985,-1.031 -2.126,-1.852 -3.423,-2.462c-1.298,-0.609 -2.697,-0.914 -4.197,-0.914c-0.188,0 -0.352,-0.07 -0.493,-0.211c-0.14,-0.141 -0.211,-0.305 -0.211,-0.492c0,-0.188 0.071,-0.352 0.211,-0.493c0.141,-0.141 0.305,-0.211 0.493,-0.211c1.657,0 3.22,0.328 4.689,0.985c1.469,0.656 2.782,1.594 3.939,2.814c1.157,1.219 2.04,2.61 2.65,4.173c0.609,1.563 0.914,3.204 0.914,4.924c0,1.719 -0.305,3.361 -0.914,4.924c-0.61,1.563 -1.493,2.938 -2.65,4.126c-1.157,1.251 -2.47,2.196 -3.939,2.837c-1.469,0.641 -3.032,0.962 -4.689,0.962Zm0,0l-11.489,0c-0.188,0 -0.352,-0.071 -0.493,-0.211c-0.14,-0.141 -0.211,-0.305 -0.211,-0.493c0,-0.187 0.071,-0.352 0.211,-0.492c0.141,-0.141 0.305,-0.211 0.493,-0.211l11.489,0c0.219,0 0.39,0.07 0.516,0.211c0.125,0.14 0.187,0.305 0.187,0.492c0,0.188 -0.062,0.352 -0.187,0.493c-0.126,0.14 -0.297,0.211 -0.516,0.211Zm-11.489,13.13c-0.188,0 -0.352,-0.071 -0.493,-0.211c-0.14,-0.141 -0.211,-0.305 -0.211,-0.493l0,-38.171l12.193,0c0.219,0 0.39,0.07 0.516,0.211c0.125,0.141 0.187,0.305 0.187,0.493c0,0.187 -0.062,0.351 -0.187,0.492c-0.126,0.141 -0.297,0.211 -0.516,0.211l-10.786,0l0,36.764c0,0.188 -0.07,0.352 -0.211,0.493c-0.14,0.14 -0.305,0.211 -0.492,0.211Z" style="fill-rule:nonzero;"/><path d="M496.645,517.381c-0.187,0 -0.352,-0.071 -0.492,-0.211c-0.141,-0.141 -0.211,-0.305 -0.211,-0.493l0,-14.49c0,-1.281 0.242,-2.493 0.727,-3.634c0.484,-1.141 1.148,-2.134 1.993,-2.978c0.844,-0.844 1.836,-1.516 2.977,-2.016c1.141,-0.5 2.353,-0.75 3.634,-0.75c1.282,0 2.494,0.25 3.635,0.75c1.141,0.5 2.133,1.172 2.977,2.016c0.844,0.844 1.517,1.837 2.017,2.978c0.5,1.141 0.75,2.353 0.75,3.634l0,1.595c0,0.218 -0.07,0.39 -0.211,0.515c-0.141,0.126 -0.305,0.188 -0.492,0.188c-0.469,0 -0.704,-0.234 -0.704,-0.703l0,-1.595c0,-1.094 -0.211,-2.126 -0.633,-3.095c-0.422,-0.969 -0.992,-1.813 -1.711,-2.532c-0.719,-0.719 -1.563,-1.289 -2.533,-1.712c-0.969,-0.422 -2,-0.633 -3.095,-0.633c-1.094,0 -2.118,0.211 -3.071,0.633c-0.954,0.423 -1.79,0.993 -2.509,1.712c-0.719,0.719 -1.289,1.563 -1.711,2.532c-0.422,0.969 -0.634,2.001 -0.634,3.095l0,14.49c0,0.188 -0.07,0.352 -0.211,0.493c-0.14,0.14 -0.304,0.211 -0.492,0.211Z" style="fill-rule:nonzero;"/><path d="M532.19,517.381c-1.594,0 -3.11,-0.321 -4.548,-0.962c-1.438,-0.64 -2.72,-1.555 -3.846,-2.743c-1.125,-1.188 -1.985,-2.54 -2.579,-4.056c-0.594,-1.516 -0.891,-3.119 -0.891,-4.807c0,-1.688 0.297,-3.29 0.891,-4.806c0.594,-1.516 1.454,-2.869 2.579,-4.057c1.126,-1.187 2.408,-2.094 3.846,-2.719c1.438,-0.626 2.954,-0.938 4.548,-0.938c1.595,0 3.119,0.312 4.572,0.938c1.454,0.625 2.744,1.532 3.869,2.719c1.125,1.188 1.985,2.541 2.579,4.057c0.594,1.516 0.891,3.118 0.891,4.806c0,1.688 -0.297,3.291 -0.891,4.807c-0.594,1.516 -1.454,2.868 -2.579,4.056c-1.125,1.188 -2.415,2.103 -3.869,2.743c-1.453,0.641 -2.977,0.962 -4.572,0.962Zm0,-23.681c-1.438,0 -2.79,0.289 -4.056,0.867c-1.266,0.578 -2.376,1.376 -3.329,2.392c-0.954,1.016 -1.704,2.196 -2.251,3.54c-0.547,1.344 -0.821,2.782 -0.821,4.314c0,1.532 0.274,2.978 0.821,4.338c0.547,1.36 1.297,2.54 2.251,3.54c0.953,1.001 2.063,1.798 3.329,2.392c1.266,0.594 2.618,0.891 4.056,0.891c1.438,0 2.798,-0.297 4.08,-0.891c1.282,-0.594 2.399,-1.391 3.353,-2.392c0.953,-1 1.704,-2.18 2.251,-3.54c0.547,-1.36 0.82,-2.806 0.82,-4.338c0,-1.532 -0.273,-2.97 -0.82,-4.314c-0.547,-1.344 -1.298,-2.524 -2.251,-3.54c-0.954,-1.016 -2.071,-1.814 -3.353,-2.392c-1.282,-0.578 -2.642,-0.867 -4.08,-0.867Z" style="fill-rule:nonzero;"/><path d="M560.748,517.381c-1.594,0 -3.11,-0.321 -4.548,-0.962c-1.438,-0.64 -2.72,-1.555 -3.846,-2.743c-1.125,-1.188 -1.985,-2.54 -2.579,-4.056c-0.594,-1.516 -0.891,-3.119 -0.891,-4.807c0,-1.688 0.297,-3.29 0.891,-4.806c0.594,-1.516 1.454,-2.869 2.579,-4.057c1.126,-1.187 2.408,-2.094 3.846,-2.719c1.438,-0.626 2.954,-0.938 4.548,-0.938c1.595,0 3.119,0.312 4.572,0.938c1.454,0.625 2.744,1.532 3.869,2.719c1.125,1.188 1.985,2.541 2.579,4.057c0.594,1.516 0.891,3.118 0.891,4.806c0,1.688 -0.297,3.291 -0.891,4.807c-0.594,1.516 -1.454,2.868 -2.579,4.056c-1.125,1.188 -2.415,2.103 -3.869,2.743c-1.453,0.641 -2.977,0.962 -4.572,0.962Zm0,-23.681c-1.438,0 -2.79,0.289 -4.056,0.867c-1.266,0.578 -2.376,1.376 -3.329,2.392c-0.954,1.016 -1.704,2.196 -2.251,3.54c-0.547,1.344 -0.821,2.782 -0.821,4.314c0,1.532 0.274,2.978 0.821,4.338c0.547,1.36 1.297,2.54 2.251,3.54c0.953,1.001 2.063,1.798 3.329,2.392c1.266,0.594 2.618,0.891 4.056,0.891c1.438,0 2.798,-0.297 4.08,-0.891c1.282,-0.594 2.399,-1.391 3.353,-2.392c0.953,-1 1.704,-2.18 2.251,-3.54c0.547,-1.36 0.82,-2.806 0.82,-4.338c0,-1.532 -0.273,-2.97 -0.82,-4.314c-0.547,-1.344 -1.298,-2.524 -2.251,-3.54c-0.954,-1.016 -2.071,-1.814 -3.353,-2.392c-1.282,-0.578 -2.642,-0.867 -4.08,-0.867Zm11.208,11.817c-0.188,0 -0.352,-0.063 -0.493,-0.188c-0.14,-0.125 -0.211,-0.297 -0.211,-0.516l0,-24.619c0,-0.187 0.071,-0.351 0.211,-0.492c0.141,-0.141 0.305,-0.211 0.493,-0.211c0.187,0 0.351,0.07 0.492,0.211c0.141,0.141 0.211,0.305 0.211,0.492l0,24.619c0,0.219 -0.07,0.391 -0.211,0.516c-0.141,0.125 -0.305,0.188 -0.492,0.188Z" style="fill-rule:nonzero;"/><path d="M591.604,517.381c-1.469,0 -2.86,-0.289 -4.173,-0.868c-1.313,-0.578 -2.47,-1.414 -3.471,-2.509c-1.031,-1.094 -1.821,-2.329 -2.368,-3.704c-0.547,-1.376 -0.82,-2.829 -0.82,-4.361l0,-10.786c0,-0.187 0.07,-0.351 0.211,-0.492c0.14,-0.141 0.305,-0.211 0.492,-0.211c0.219,0 0.391,0.07 0.516,0.211c0.125,0.141 0.188,0.305 0.188,0.492l0,10.786c0,1.375 0.25,2.673 0.75,3.892c0.5,1.219 1.172,2.282 2.016,3.189c0.844,0.906 1.837,1.625 2.978,2.157c1.141,0.531 2.368,0.797 3.681,0.797c1.313,0 2.54,-0.266 3.681,-0.797c1.141,-0.532 2.134,-1.251 2.978,-2.157c0.844,-0.907 1.516,-1.97 2.016,-3.189c0.501,-1.219 0.751,-2.517 0.751,-3.892l0,-10.786c0,-0.187 0.07,-0.351 0.211,-0.492c0.14,-0.141 0.304,-0.211 0.492,-0.211c0.219,0 0.391,0.07 0.516,0.211c0.125,0.141 0.187,0.305 0.187,0.492l0,10.786c0,1.532 -0.273,2.985 -0.82,4.361c-0.547,1.375 -1.321,2.61 -2.321,3.704c-1.032,1.095 -2.204,1.931 -3.517,2.509c-1.313,0.579 -2.705,0.868 -4.174,0.868Z" style="fill-rule:nonzero;"/><path d="M622.319,517.381c-1.594,0 -3.118,-0.321 -4.572,-0.962c-1.454,-0.64 -2.743,-1.555 -3.869,-2.743c-1.094,-1.188 -1.946,-2.54 -2.555,-4.056c-0.61,-1.516 -0.915,-3.119 -0.915,-4.807c0,-1.688 0.305,-3.29 0.915,-4.806c0.609,-1.516 1.461,-2.869 2.555,-4.057c1.126,-1.187 2.415,-2.094 3.869,-2.719c1.454,-0.626 2.978,-0.938 4.572,-0.938c0.969,0 1.931,0.117 2.884,0.351c0.954,0.235 1.852,0.602 2.696,1.102c0.813,0.469 1.579,1.032 2.298,1.689c0.719,0.656 1.345,1.391 1.876,2.204c0.094,0.156 0.125,0.328 0.094,0.515c-0.031,0.188 -0.125,0.329 -0.282,0.422c-0.156,0.126 -0.336,0.165 -0.539,0.118c-0.203,-0.047 -0.352,-0.149 -0.445,-0.305c-1.001,-1.501 -2.259,-2.657 -3.775,-3.47c-1.516,-0.813 -3.119,-1.219 -4.807,-1.219c-1.438,0 -2.798,0.289 -4.08,0.867c-1.281,0.578 -2.399,1.376 -3.352,2.392c-0.954,1.016 -1.704,2.196 -2.251,3.54c-0.547,1.344 -0.821,2.782 -0.821,4.314c0,1.532 0.274,2.978 0.821,4.338c0.547,1.36 1.297,2.54 2.251,3.54c0.953,1.001 2.071,1.798 3.352,2.392c1.282,0.594 2.642,0.891 4.08,0.891c1.688,0 3.291,-0.414 4.807,-1.243c1.516,-0.828 2.774,-1.993 3.775,-3.493c0.093,-0.157 0.242,-0.25 0.445,-0.282c0.203,-0.031 0.383,0 0.539,0.094c0.344,0.281 0.407,0.61 0.188,0.985c-0.531,0.813 -1.157,1.547 -1.876,2.204c-0.719,0.656 -1.485,1.219 -2.298,1.688c-1.75,0.969 -3.61,1.454 -5.58,1.454Z" style="fill-rule:nonzero;"/><path d="M649.424,517.381c-1.282,0 -2.494,-0.243 -3.635,-0.727c-1.141,-0.485 -2.133,-1.149 -2.977,-1.993c-0.845,-0.844 -1.509,-1.837 -1.993,-2.978c-0.485,-1.141 -0.727,-2.352 -0.727,-3.634l0,-27.855c0,-0.187 0.07,-0.351 0.211,-0.492c0.14,-0.141 0.305,-0.211 0.492,-0.211c0.188,0 0.352,0.07 0.493,0.211c0.14,0.141 0.211,0.305 0.211,0.492l0,27.855c0,1.094 0.211,2.118 0.633,3.071c0.422,0.954 0.992,1.79 1.711,2.509c0.719,0.719 1.556,1.29 2.509,1.712c0.954,0.422 1.977,0.633 3.072,0.633c1.094,0 2.125,-0.211 3.094,-0.633c0.97,-0.422 1.814,-0.993 2.533,-1.712c0.719,-0.719 1.289,-1.555 1.711,-2.509c0.422,-0.953 0.633,-1.977 0.633,-3.071l0,-1.641c0,-0.188 0.063,-0.352 0.188,-0.493c0.125,-0.14 0.297,-0.211 0.516,-0.211c0.187,0 0.351,0.071 0.492,0.211c0.141,0.141 0.211,0.305 0.211,0.493l0,1.641c0,1.282 -0.25,2.493 -0.75,3.634c-0.5,1.141 -1.172,2.134 -2.017,2.978c-0.844,0.844 -1.836,1.508 -2.977,1.993c-1.141,0.484 -2.353,0.727 -3.634,0.727Zm4.454,-22.181l-13.083,0c-0.187,0 -0.352,-0.062 -0.492,-0.187c-0.141,-0.125 -0.211,-0.297 -0.211,-0.516c0,-0.188 0.07,-0.352 0.211,-0.493c0.14,-0.14 0.305,-0.211 0.492,-0.211l13.083,0c0.188,0 0.352,0.071 0.493,0.211c0.14,0.141 0.211,0.305 0.211,0.493c0,0.219 -0.071,0.391 -0.211,0.516c-0.141,0.125 -0.305,0.187 -0.493,0.187Z" style="fill-rule:nonzero;"/><path d="M668.556,517.381c-0.188,0 -0.352,-0.071 -0.492,-0.211c-0.141,-0.141 -0.211,-0.305 -0.211,-0.493l0,-23.165c0,-0.188 0.07,-0.352 0.211,-0.492c0.14,-0.141 0.304,-0.211 0.492,-0.211c0.188,0 0.352,0.07 0.492,0.211c0.141,0.14 0.211,0.304 0.211,0.492l0,23.165c0,0.188 -0.07,0.352 -0.211,0.493c-0.14,0.14 -0.304,0.211 -0.492,0.211Zm0,-28.558c-0.188,0 -0.352,-0.071 -0.492,-0.211c-0.141,-0.141 -0.211,-0.305 -0.211,-0.493l0,-1.641c0,-0.188 0.07,-0.352 0.211,-0.492c0.14,-0.141 0.304,-0.211 0.492,-0.211c0.188,0 0.352,0.07 0.492,0.211c0.141,0.14 0.211,0.304 0.211,0.492l0,1.641c0,0.188 -0.07,0.352 -0.211,0.493c-0.14,0.14 -0.304,0.211 -0.492,0.211Z" style="fill-rule:nonzero;"/><path d="M690.174,517.381c-1.595,0 -3.111,-0.321 -4.549,-0.962c-1.438,-0.64 -2.72,-1.555 -3.845,-2.743c-1.126,-1.188 -1.985,-2.54 -2.579,-4.056c-0.594,-1.516 -0.891,-3.119 -0.891,-4.807c0,-1.688 0.297,-3.29 0.891,-4.806c0.594,-1.516 1.453,-2.869 2.579,-4.057c1.125,-1.187 2.407,-2.094 3.845,-2.719c1.438,-0.626 2.954,-0.938 4.549,-0.938c1.594,0 3.118,0.312 4.572,0.938c1.454,0.625 2.743,1.532 3.869,2.719c1.125,1.188 1.985,2.541 2.579,4.057c0.594,1.516 0.891,3.118 0.891,4.806c0,1.688 -0.297,3.291 -0.891,4.807c-0.594,1.516 -1.454,2.868 -2.579,4.056c-1.126,1.188 -2.415,2.103 -3.869,2.743c-1.454,0.641 -2.978,0.962 -4.572,0.962Zm0,-23.681c-1.438,0 -2.79,0.289 -4.056,0.867c-1.267,0.578 -2.376,1.376 -3.33,2.392c-0.953,1.016 -1.704,2.196 -2.251,3.54c-0.547,1.344 -0.82,2.782 -0.82,4.314c0,1.532 0.273,2.978 0.82,4.338c0.547,1.36 1.298,2.54 2.251,3.54c0.954,1.001 2.063,1.798 3.33,2.392c1.266,0.594 2.618,0.891 4.056,0.891c1.438,0 2.798,-0.297 4.08,-0.891c1.281,-0.594 2.399,-1.391 3.352,-2.392c0.954,-1 1.704,-2.18 2.251,-3.54c0.547,-1.36 0.821,-2.806 0.821,-4.338c0,-1.532 -0.274,-2.97 -0.821,-4.314c-0.547,-1.344 -1.297,-2.524 -2.251,-3.54c-0.953,-1.016 -2.071,-1.814 -3.352,-2.392c-1.282,-0.578 -2.642,-0.867 -4.08,-0.867Z" style="fill-rule:nonzero;"/><path d="M727.548,517.381c-0.219,0 -0.391,-0.071 -0.516,-0.211c-0.125,-0.141 -0.188,-0.305 -0.188,-0.493l0,-14.49c0,-1.094 -0.211,-2.126 -0.633,-3.095c-0.422,-0.969 -0.992,-1.813 -1.711,-2.532c-0.719,-0.719 -1.563,-1.289 -2.533,-1.712c-0.969,-0.422 -2,-0.633 -3.094,-0.633c-1.095,0 -2.118,0.211 -3.072,0.633c-0.953,0.423 -1.79,0.993 -2.509,1.712c-0.719,0.719 -1.289,1.563 -1.711,2.532c-0.422,0.969 -0.633,2.001 -0.633,3.095l0,14.49c0,0.188 -0.071,0.352 -0.211,0.493c-0.141,0.14 -0.305,0.211 -0.493,0.211c-0.187,0 -0.352,-0.071 -0.492,-0.211c-0.141,-0.141 -0.211,-0.305 -0.211,-0.493l0,-14.49c0,-1.281 0.242,-2.493 0.727,-3.634c0.484,-1.141 1.148,-2.134 1.993,-2.978c0.844,-0.844 1.836,-1.516 2.977,-2.016c1.141,-0.5 2.353,-0.75 3.635,-0.75c1.281,0 2.493,0.25 3.634,0.75c1.141,0.5 2.133,1.172 2.977,2.016c0.845,0.844 1.517,1.837 2.017,2.978c0.5,1.141 0.75,2.353 0.75,3.634l0,14.49c0,0.188 -0.07,0.352 -0.211,0.493c-0.141,0.14 -0.305,0.211 -0.492,0.211Z" style="fill-rule:nonzero;"/><path d="M629.635,625.998c-0.188,0 -0.352,-0.071 -0.493,-0.211c-0.141,-0.141 -0.211,-0.305 -0.211,-0.493c0,-1.281 -0.242,-2.485 -0.727,-3.61c-0.484,-1.126 -1.141,-2.111 -1.969,-2.955c-0.829,-0.844 -1.806,-1.508 -2.931,-1.993c-1.126,-0.484 -2.329,-0.726 -3.611,-0.726c-1.282,0 -2.485,0.242 -3.611,0.726c-1.125,0.485 -2.11,1.149 -2.954,1.993c-0.844,0.844 -1.508,1.829 -1.993,2.955c-0.484,1.125 -0.727,2.329 -0.727,3.61c0,0.188 -0.07,0.352 -0.211,0.493c-0.14,0.14 -0.305,0.211 -0.492,0.211c-0.188,0 -0.352,-0.071 -0.493,-0.211c-0.14,-0.141 -0.211,-0.305 -0.211,-0.493c0,-1.438 0.274,-2.805 0.821,-4.103c0.547,-1.297 1.321,-2.446 2.321,-3.446c1.001,-1.001 2.15,-1.775 3.447,-2.322c1.297,-0.547 2.665,-0.82 4.103,-0.82c1.407,0 2.767,0.273 4.08,0.82c1.313,0.547 2.47,1.321 3.47,2.322c1,1 1.766,2.149 2.298,3.446c0.531,1.298 0.797,2.665 0.797,4.103c0,0.188 -0.063,0.352 -0.188,0.493c-0.125,0.14 -0.297,0.211 -0.515,0.211Zm-9.942,27.714c-1.438,0 -2.806,-0.274 -4.103,-0.821c-1.297,-0.547 -2.446,-1.321 -3.447,-2.321c-1,-1 -1.774,-2.149 -2.321,-3.447c-0.547,-1.297 -0.821,-2.665 -0.821,-4.103l0,-17.726c0,-0.218 0.071,-0.39 0.211,-0.515c0.141,-0.125 0.305,-0.188 0.493,-0.188c0.187,0 0.352,0.063 0.492,0.188c0.141,0.125 0.211,0.297 0.211,0.515l0,17.726c0,1.282 0.243,2.485 0.727,3.611c0.485,1.125 1.149,2.11 1.993,2.954c0.844,0.844 1.829,1.509 2.954,1.993c1.126,0.485 2.329,0.727 3.611,0.727c1.282,0 2.485,-0.242 3.611,-0.727c1.125,-0.484 2.102,-1.149 2.931,-1.993c0.828,-0.844 1.485,-1.829 1.969,-2.954c0.485,-1.126 0.727,-2.329 0.727,-3.611c0,-0.187 0.07,-0.352 0.211,-0.492c0.141,-0.141 0.305,-0.211 0.493,-0.211c0.218,0 0.39,0.07 0.515,0.211c0.125,0.14 0.188,0.305 0.188,0.492c0,1.438 -0.266,2.806 -0.797,4.103c-0.532,1.298 -1.298,2.447 -2.298,3.447c-1,1 -2.157,1.774 -3.47,2.321c-1.313,0.547 -2.673,0.821 -4.08,0.821Zm5.815,-18.758l-15.803,0c-0.188,0 -0.352,-0.07 -0.493,-0.211c-0.14,-0.14 -0.211,-0.304 -0.211,-0.492c0,-0.219 0.071,-0.391 0.211,-0.516c0.141,-0.125 0.305,-0.187 0.493,-0.187l15.803,0c0.469,0 0.703,0.234 0.703,0.703c0,0.188 -0.062,0.352 -0.187,0.492c-0.125,0.141 -0.297,0.211 -0.516,0.211Z" style="fill-rule:nonzero;"/><path d="M654.816,653.712c-0.25,0 -0.437,-0.11 -0.562,-0.328l-15.663,-23.166c-0.125,-0.156 -0.164,-0.328 -0.117,-0.516c0.047,-0.187 0.148,-0.343 0.305,-0.469c0.156,-0.125 0.328,-0.164 0.516,-0.117c0.187,0.047 0.343,0.149 0.468,0.305l15.663,23.212c0.094,0.157 0.125,0.328 0.094,0.516c-0.032,0.188 -0.125,0.328 -0.282,0.422c-0.156,0.094 -0.297,0.141 -0.422,0.141Zm-15.662,0c-0.125,0 -0.25,-0.047 -0.375,-0.141c-0.157,-0.094 -0.258,-0.234 -0.305,-0.422c-0.047,-0.188 -0.008,-0.359 0.117,-0.516l15.663,-23.212c0.125,-0.156 0.281,-0.258 0.468,-0.305c0.188,-0.047 0.36,-0.008 0.516,0.117c0.344,0.251 0.407,0.579 0.188,0.985l-15.663,23.166c-0.125,0.218 -0.328,0.328 -0.609,0.328Z" style="fill-rule:nonzero;"/><path d="M678.873,653.712c-1.595,0 -3.119,-0.321 -4.573,-0.962c-1.453,-0.64 -2.743,-1.555 -3.868,-2.743c-1.094,-1.188 -1.946,-2.54 -2.556,-4.056c-0.61,-1.516 -0.914,-3.118 -0.914,-4.807c0,-1.688 0.304,-3.29 0.914,-4.806c0.61,-1.516 1.462,-2.869 2.556,-4.056c1.125,-1.188 2.415,-2.103 3.868,-2.744c1.454,-0.641 2.978,-0.961 4.573,-0.961c1.594,0 3.118,0.32 4.572,0.961c1.453,0.641 2.743,1.556 3.868,2.744c1.094,1.187 1.946,2.54 2.556,4.056c0.61,1.516 0.914,3.118 0.914,4.806c0,1.689 -0.304,3.291 -0.914,4.807c-0.61,1.516 -1.462,2.868 -2.556,4.056c-1.125,1.188 -2.415,2.103 -3.868,2.743c-1.454,0.641 -2.978,0.962 -4.572,0.962Zm0,-23.728c-1.439,0 -2.798,0.297 -4.08,0.891c-1.282,0.594 -2.4,1.391 -3.353,2.391c-0.954,1.001 -1.704,2.181 -2.251,3.541c-0.547,1.36 -0.821,2.806 -0.821,4.337c0,1.532 0.274,2.978 0.821,4.338c0.547,1.36 1.297,2.54 2.251,3.54c0.953,1.001 2.071,1.798 3.353,2.392c1.282,0.594 2.641,0.891 4.08,0.891c1.438,0 2.797,-0.297 4.079,-0.891c1.282,-0.594 2.4,-1.391 3.353,-2.392c0.954,-1 1.704,-2.18 2.251,-3.54c0.547,-1.36 0.821,-2.806 0.821,-4.338c0,-1.531 -0.274,-2.977 -0.821,-4.337c-0.547,-1.36 -1.297,-2.54 -2.251,-3.541c-0.953,-1 -2.071,-1.797 -3.353,-2.391c-1.282,-0.594 -2.641,-0.891 -4.079,-0.891Zm-11.208,36.483c-0.188,0 -0.352,-0.071 -0.492,-0.211c-0.141,-0.141 -0.211,-0.305 -0.211,-0.493l0,-24.619c0,-0.187 0.07,-0.351 0.211,-0.492c0.14,-0.141 0.304,-0.211 0.492,-0.211c0.219,0 0.391,0.07 0.516,0.211c0.125,0.141 0.187,0.305 0.187,0.492l0,24.619c0,0.188 -0.062,0.352 -0.187,0.493c-0.125,0.14 -0.297,0.211 -0.516,0.211Z" style="fill-rule:nonzero;"/><path d="M708.603,653.712c-1.282,0 -2.493,-0.243 -3.634,-0.727c-1.141,-0.485 -2.134,-1.149 -2.978,-1.993c-0.844,-0.844 -1.516,-1.837 -2.016,-2.978c-0.501,-1.141 -0.751,-2.352 -0.751,-3.634l0,-27.855c0,-0.187 0.071,-0.351 0.211,-0.492c0.141,-0.141 0.305,-0.211 0.493,-0.211c0.218,0 0.39,0.07 0.515,0.211c0.125,0.141 0.188,0.305 0.188,0.492l0,27.855c0,1.094 0.211,2.118 0.633,3.072c0.422,0.953 0.993,1.789 1.712,2.508c0.719,0.719 1.563,1.29 2.532,1.712c0.969,0.422 2.001,0.633 3.095,0.633c0.187,0 0.352,0.07 0.492,0.211c0.141,0.141 0.211,0.305 0.211,0.492c0,0.188 -0.07,0.352 -0.211,0.493c-0.14,0.14 -0.305,0.211 -0.492,0.211Z" style="fill-rule:nonzero;"/><path d="M726.141,653.712c-1.594,0 -3.111,-0.321 -4.549,-0.962c-1.438,-0.64 -2.719,-1.555 -3.845,-2.743c-1.125,-1.188 -1.985,-2.54 -2.579,-4.056c-0.594,-1.516 -0.891,-3.118 -0.891,-4.807c0,-1.688 0.297,-3.29 0.891,-4.806c0.594,-1.516 1.454,-2.869 2.579,-4.056c1.126,-1.188 2.407,-2.095 3.845,-2.72c1.438,-0.626 2.955,-0.938 4.549,-0.938c1.594,0 3.118,0.312 4.572,0.938c1.454,0.625 2.743,1.532 3.869,2.72c1.125,1.187 1.985,2.54 2.579,4.056c0.594,1.516 0.891,3.118 0.891,4.806c0,1.689 -0.297,3.291 -0.891,4.807c-0.594,1.516 -1.454,2.868 -2.579,4.056c-1.126,1.188 -2.415,2.103 -3.869,2.743c-1.454,0.641 -2.978,0.962 -4.572,0.962Zm0,-23.681c-1.438,0 -2.79,0.289 -4.056,0.867c-1.266,0.579 -2.376,1.376 -3.33,2.392c-0.953,1.016 -1.704,2.196 -2.251,3.54c-0.547,1.344 -0.82,2.783 -0.82,4.314c0,1.532 0.273,2.978 0.82,4.338c0.547,1.36 1.298,2.54 2.251,3.54c0.954,1.001 2.064,1.798 3.33,2.392c1.266,0.594 2.618,0.891 4.056,0.891c1.438,0 2.798,-0.297 4.08,-0.891c1.281,-0.594 2.399,-1.391 3.353,-2.392c0.953,-1 1.703,-2.18 2.25,-3.54c0.548,-1.36 0.821,-2.806 0.821,-4.338c0,-1.531 -0.273,-2.97 -0.821,-4.314c-0.547,-1.344 -1.297,-2.524 -2.25,-3.54c-0.954,-1.016 -2.072,-1.813 -3.353,-2.392c-1.282,-0.578 -2.642,-0.867 -4.08,-0.867Z" style="fill-rule:nonzero;"/><path d="M745.649,653.712c-0.188,0 -0.352,-0.071 -0.493,-0.211c-0.14,-0.141 -0.211,-0.305 -0.211,-0.493l0,-23.165c0,-0.187 0.071,-0.352 0.211,-0.492c0.141,-0.141 0.305,-0.211 0.493,-0.211c0.187,0 0.351,0.07 0.492,0.211c0.141,0.14 0.211,0.305 0.211,0.492l0,23.165c0,0.188 -0.07,0.352 -0.211,0.493c-0.141,0.14 -0.305,0.211 -0.492,0.211Zm0,-28.558c-0.188,0 -0.352,-0.071 -0.493,-0.211c-0.14,-0.141 -0.211,-0.305 -0.211,-0.493l0,-1.641c0,-0.187 0.071,-0.352 0.211,-0.492c0.141,-0.141 0.305,-0.211 0.493,-0.211c0.187,0 0.351,0.07 0.492,0.211c0.141,0.14 0.211,0.305 0.211,0.492l0,1.641c0,0.188 -0.07,0.352 -0.211,0.493c-0.141,0.14 -0.305,0.211 -0.492,0.211Z" style="fill-rule:nonzero;"/><path d="M766.751,653.712c-1.282,0 -2.494,-0.243 -3.635,-0.727c-1.141,-0.485 -2.133,-1.149 -2.977,-1.993c-0.844,-0.844 -1.509,-1.837 -1.993,-2.978c-0.485,-1.141 -0.727,-2.352 -0.727,-3.634l0,-27.855c0,-0.187 0.07,-0.351 0.211,-0.492c0.141,-0.141 0.305,-0.211 0.492,-0.211c0.188,0 0.352,0.07 0.493,0.211c0.14,0.141 0.211,0.305 0.211,0.492l0,27.855c0,1.094 0.211,2.118 0.633,3.072c0.422,0.953 0.992,1.789 1.711,2.508c0.719,0.719 1.556,1.29 2.509,1.712c0.954,0.422 1.977,0.633 3.072,0.633c1.094,0 2.125,-0.211 3.095,-0.633c0.969,-0.422 1.813,-0.993 2.532,-1.712c0.719,-0.719 1.289,-1.555 1.711,-2.508c0.422,-0.954 0.633,-1.978 0.633,-3.072l0,-1.641c0,-0.188 0.063,-0.352 0.188,-0.493c0.125,-0.14 0.297,-0.211 0.516,-0.211c0.187,0 0.352,0.071 0.492,0.211c0.141,0.141 0.211,0.305 0.211,0.493l0,1.641c0,1.282 -0.25,2.493 -0.75,3.634c-0.5,1.141 -1.172,2.134 -2.016,2.978c-0.845,0.844 -1.837,1.508 -2.978,1.993c-1.141,0.484 -2.353,0.727 -3.634,0.727Zm4.454,-22.181l-13.083,0c-0.187,0 -0.351,-0.062 -0.492,-0.187c-0.141,-0.125 -0.211,-0.297 -0.211,-0.516c0,-0.188 0.07,-0.352 0.211,-0.493c0.141,-0.14 0.305,-0.211 0.492,-0.211l13.083,0c0.188,0 0.352,0.071 0.493,0.211c0.141,0.141 0.211,0.305 0.211,0.493c0,0.219 -0.07,0.391 -0.211,0.516c-0.141,0.125 -0.305,0.187 -0.493,0.187Z" style="fill-rule:nonzero;"/><path d="M794.089,653.712c-1.594,0 -3.11,-0.321 -4.548,-0.962c-1.438,-0.64 -2.72,-1.555 -3.846,-2.743c-1.125,-1.188 -1.985,-2.54 -2.579,-4.056c-0.594,-1.516 -0.891,-3.118 -0.891,-4.807c0,-1.688 0.297,-3.29 0.891,-4.806c0.594,-1.516 1.454,-2.869 2.579,-4.056c1.126,-1.188 2.408,-2.095 3.846,-2.72c1.438,-0.626 2.954,-0.938 4.548,-0.938c1.595,0 3.119,0.312 4.572,0.938c1.454,0.625 2.744,1.532 3.869,2.72c1.126,1.187 1.985,2.54 2.579,4.056c0.594,1.516 0.891,3.118 0.891,4.806c0,1.689 -0.297,3.291 -0.891,4.807c-0.594,1.516 -1.453,2.868 -2.579,4.056c-1.125,1.188 -2.415,2.103 -3.869,2.743c-1.453,0.641 -2.977,0.962 -4.572,0.962Zm0,-23.681c-1.438,0 -2.79,0.289 -4.056,0.867c-1.266,0.579 -2.376,1.376 -3.329,2.392c-0.954,1.016 -1.704,2.196 -2.251,3.54c-0.547,1.344 -0.821,2.783 -0.821,4.314c0,1.532 0.274,2.978 0.821,4.338c0.547,1.36 1.297,2.54 2.251,3.54c0.953,1.001 2.063,1.798 3.329,2.392c1.266,0.594 2.618,0.891 4.056,0.891c1.438,0 2.798,-0.297 4.08,-0.891c1.282,-0.594 2.399,-1.391 3.353,-2.392c0.953,-1 1.704,-2.18 2.251,-3.54c0.547,-1.36 0.821,-2.806 0.821,-4.338c0,-1.531 -0.274,-2.97 -0.821,-4.314c-0.547,-1.344 -1.298,-2.524 -2.251,-3.54c-0.954,-1.016 -2.071,-1.813 -3.353,-2.392c-1.282,-0.578 -2.642,-0.867 -4.08,-0.867Zm11.208,23.681c-0.188,0 -0.352,-0.071 -0.492,-0.211c-0.141,-0.141 -0.211,-0.305 -0.211,-0.493l0,-11.864c0,-0.187 0.07,-0.351 0.211,-0.492c0.14,-0.141 0.304,-0.211 0.492,-0.211c0.187,0 0.352,0.07 0.492,0.211c0.141,0.141 0.211,0.305 0.211,0.492l0,11.864c0,0.188 -0.07,0.352 -0.211,0.493c-0.14,0.14 -0.305,0.211 -0.492,0.211Z" style="fill-rule:nonzero;"/><path d="M822.741,653.712c-1.282,0 -2.493,-0.243 -3.634,-0.727c-1.141,-0.485 -2.134,-1.149 -2.978,-1.993c-0.844,-0.844 -1.508,-1.837 -1.993,-2.978c-0.484,-1.141 -0.727,-2.352 -0.727,-3.634l0,-27.855c0,-0.187 0.071,-0.351 0.211,-0.492c0.141,-0.141 0.305,-0.211 0.493,-0.211c0.187,0 0.352,0.07 0.492,0.211c0.141,0.141 0.211,0.305 0.211,0.492l0,27.855c0,1.094 0.211,2.118 0.633,3.072c0.422,0.953 0.993,1.789 1.712,2.508c0.719,0.719 1.555,1.29 2.509,1.712c0.953,0.422 1.977,0.633 3.071,0.633c1.094,0 2.126,-0.211 3.095,-0.633c0.969,-0.422 1.813,-0.993 2.532,-1.712c0.719,-0.719 1.29,-1.555 1.712,-2.508c0.422,-0.954 0.633,-1.978 0.633,-3.072l0,-1.641c0,-0.188 0.063,-0.352 0.188,-0.493c0.125,-0.14 0.297,-0.211 0.515,-0.211c0.188,0 0.352,0.071 0.493,0.211c0.141,0.141 0.211,0.305 0.211,0.493l0,1.641c0,1.282 -0.25,2.493 -0.75,3.634c-0.501,1.141 -1.173,2.134 -2.017,2.978c-0.844,0.844 -1.836,1.508 -2.978,1.993c-1.141,0.484 -2.352,0.727 -3.634,0.727Zm4.455,-22.181l-13.083,0c-0.188,0 -0.352,-0.062 -0.493,-0.187c-0.14,-0.125 -0.211,-0.297 -0.211,-0.516c0,-0.188 0.071,-0.352 0.211,-0.493c0.141,-0.14 0.305,-0.211 0.493,-0.211l13.083,0c0.188,0 0.352,0.071 0.492,0.211c0.141,0.141 0.211,0.305 0.211,0.493c0,0.219 -0.07,0.391 -0.211,0.516c-0.14,0.125 -0.304,0.187 -0.492,0.187Z" style="fill-rule:nonzero;"/><path d="M841.874,653.712c-0.188,0 -0.352,-0.071 -0.493,-0.211c-0.14,-0.141 -0.211,-0.305 -0.211,-0.493l0,-23.165c0,-0.187 0.071,-0.352 0.211,-0.492c0.141,-0.141 0.305,-0.211 0.493,-0.211c0.187,0 0.351,0.07 0.492,0.211c0.141,0.14 0.211,0.305 0.211,0.492l0,23.165c0,0.188 -0.07,0.352 -0.211,0.493c-0.141,0.14 -0.305,0.211 -0.492,0.211Zm0,-28.558c-0.188,0 -0.352,-0.071 -0.493,-0.211c-0.14,-0.141 -0.211,-0.305 -0.211,-0.493l0,-1.641c0,-0.187 0.071,-0.352 0.211,-0.492c0.141,-0.141 0.305,-0.211 0.493,-0.211c0.187,0 0.351,0.07 0.492,0.211c0.141,0.14 0.211,0.305 0.211,0.492l0,1.641c0,0.188 -0.07,0.352 -0.211,0.493c-0.141,0.14 -0.305,0.211 -0.492,0.211Z" style="fill-rule:nonzero;"/><path d="M863.492,653.712c-1.595,0 -3.111,-0.321 -4.549,-0.962c-1.438,-0.64 -2.72,-1.555 -3.845,-2.743c-1.126,-1.188 -1.986,-2.54 -2.58,-4.056c-0.594,-1.516 -0.891,-3.118 -0.891,-4.807c0,-1.688 0.297,-3.29 0.891,-4.806c0.594,-1.516 1.454,-2.869 2.58,-4.056c1.125,-1.188 2.407,-2.095 3.845,-2.72c1.438,-0.626 2.954,-0.938 4.549,-0.938c1.594,0 3.118,0.312 4.572,0.938c1.453,0.625 2.743,1.532 3.868,2.72c1.126,1.187 1.985,2.54 2.579,4.056c0.594,1.516 0.891,3.118 0.891,4.806c0,1.689 -0.297,3.291 -0.891,4.807c-0.594,1.516 -1.453,2.868 -2.579,4.056c-1.125,1.188 -2.415,2.103 -3.868,2.743c-1.454,0.641 -2.978,0.962 -4.572,0.962Zm0,-23.681c-1.439,0 -2.791,0.289 -4.057,0.867c-1.266,0.579 -2.376,1.376 -3.329,2.392c-0.954,1.016 -1.704,2.196 -2.251,3.54c-0.547,1.344 -0.821,2.783 -0.821,4.314c0,1.532 0.274,2.978 0.821,4.338c0.547,1.36 1.297,2.54 2.251,3.54c0.953,1.001 2.063,1.798 3.329,2.392c1.266,0.594 2.618,0.891 4.057,0.891c1.438,0 2.797,-0.297 4.079,-0.891c1.282,-0.594 2.4,-1.391 3.353,-2.392c0.954,-1 1.704,-2.18 2.251,-3.54c0.547,-1.36 0.821,-2.806 0.821,-4.338c0,-1.531 -0.274,-2.97 -0.821,-4.314c-0.547,-1.344 -1.297,-2.524 -2.251,-3.54c-0.953,-1.016 -2.071,-1.813 -3.353,-2.392c-1.282,-0.578 -2.641,-0.867 -4.079,-0.867Z" style="fill-rule:nonzero;"/><path d="M900.865,653.712c-0.218,0 -0.39,-0.071 -0.515,-0.211c-0.125,-0.141 -0.188,-0.305 -0.188,-0.493l0,-14.49c0,-1.094 -0.211,-2.125 -0.633,-3.095c-0.422,-0.969 -0.993,-1.813 -1.712,-2.532c-0.719,-0.719 -1.563,-1.289 -2.532,-1.711c-0.969,-0.422 -2.001,-0.634 -3.095,-0.634c-1.094,0 -2.118,0.212 -3.071,0.634c-0.954,0.422 -1.79,0.992 -2.509,1.711c-0.719,0.719 -1.29,1.563 -1.712,2.532c-0.422,0.97 -0.633,2.001 -0.633,3.095l0,14.49c0,0.188 -0.07,0.352 -0.211,0.493c-0.14,0.14 -0.305,0.211 -0.492,0.211c-0.188,0 -0.352,-0.071 -0.493,-0.211c-0.14,-0.141 -0.211,-0.305 -0.211,-0.493l0,-14.49c0,-1.281 0.243,-2.493 0.727,-3.634c0.485,-1.141 1.149,-2.134 1.993,-2.978c0.844,-0.844 1.837,-1.516 2.978,-2.016c1.141,-0.5 2.352,-0.75 3.634,-0.75c1.282,0 2.493,0.25 3.634,0.75c1.142,0.5 2.134,1.172 2.978,2.016c0.844,0.844 1.516,1.837 2.017,2.978c0.5,1.141 0.75,2.353 0.75,3.634l0,14.49c0,0.188 -0.07,0.352 -0.211,0.493c-0.141,0.14 -0.305,0.211 -0.493,0.211Z" style="fill-rule:nonzero;"/><rect x="278.96" y="315.5" width="370" height="100" style="fill:none;stroke:#000;stroke-width:1px;"/><rect x="411.5" y="452.5" width="370" height="100" style="fill:none;stroke:#000;stroke-width:1px;"/><rect x="568.5" y="587.5" width="370" height="100" style="fill:none;stroke:#000;stroke-width:1px;"/><path d="M17.696,25.125c-2.326,0 -5.087,-0.463 -7.008,1.165c-1.216,1.031 -1.323,2.294 -1.323,3.803c0,0.375 -0.109,0.965 0.088,1.308c0.687,1.195 2.224,1.466 3.43,1.616c2.037,0.255 3.807,-0.941 5.501,-1.884c0.505,-0.281 1.357,-0.634 1.683,-1.143c0.305,-0.477 0.222,-1.046 0.222,-1.586c0,-2.316 -0.819,-3.033 -2.949,-3.033" style="fill:none;stroke:#000;stroke-width:1px;"/><path d="M13.039,33.299c0,2.531 -0.308,5.052 -0.308,7.542" style="fill:none;stroke:#000;stroke-width:1px;"/><path d="M10.164,36.4c2.191,0 4.381,0 6.572,0c0.186,0 1.784,-0.155 1.784,0.119" style="fill:none;stroke:#000;stroke-width:1px;"/><path d="M12.288,41.995c-0.782,0.651 -0.768,0.651 -1.217,1.18c-0.16,0.19 -0.486,0.813 -0.486,0.565" style="fill:none;stroke:#000;stroke-width:1px;"/><path d="M12.921,41.405c0.599,0.599 2.384,2.057 3.092,2.057" style="fill:none;stroke:#000;stroke-width:1px;"/><path d="M359.589,26.25c-0.537,0.015 -2.376,-0.278 -3.205,0.253c-0.744,0.477 -1.415,0.925 -1.957,1.643c-3.176,4.21 3.384,5.147 6.274,3.39c0.658,-0.4 2.478,-1.954 1.443,-2.99c-0.619,-0.618 -1.753,-0.703 -2.341,-1.291" style="fill:none;stroke:#000;stroke-width:1px;"/><path d="M357.187,32.439c0,3.341 0,6.682 0,10.022" style="fill:none;stroke:#000;stroke-width:1px;"/><path d="M353.93,38.59c2.088,0 4.419,-0.202 6.407,-0.702c0.227,-0.057 1.573,-0.028 1.573,-0.242" style="fill:none;stroke:#000;stroke-width:1px;"/><path d="M357.308,43.033c0,0.504 -0.594,0.791 -0.594,1.288" style="fill:none;stroke:#000;stroke-width:1px;"/><path d="M357.92,42.922c1.682,0 3.863,-1.185 5.334,-1.931c0.267,-0.135 1.384,-0.358 1.384,-0.741" style="fill:none;stroke:#000;stroke-width:1px;"/><path d="M400.627,5.063c0,3.235 -2.181,5.233 -3.441,8.124c-0.423,0.97 -0.793,1.941 -1.27,2.89c-0.168,0.333 -0.514,1.372 -0.514,1.204" style="fill:none;stroke:#000;stroke-width:1px;"/><path d="M403.989,1.466c-1.409,0 -2.964,-0.623 -4.228,0c-2.196,1.082 -2.455,4.378 -0.111,4.96c1.178,0.293 5.978,0.439 6.549,-0.72c0.51,-1.035 -3.215,-4.089 -4.244,-4.089" style="fill:none;stroke:#000;stroke-width:1px;"/><path d="M394.822,9.114c-0.354,0 0.726,0.047 1.043,0.205c0.757,0.376 1.359,0.771 2.169,1.089c1.458,0.572 4.198,2.909 5.455,2.909" style="fill:none;stroke:#000;stroke-width:1px;"/><path d="M396.206,17.592c-1.204,0 -2.286,1.073 -3.154,1.073" style="fill:none;stroke:#000;stroke-width:1px;"/><path d="M395.457,16.153c-1.949,0.963 -4.75,2.716 -6.292,4.237" style="fill:none;stroke:#000;stroke-width:1px;"/></g></svg>