<?xml version="1.0" encoding="UTF-8" standalone="no"?>
<!-- Created with Inkscape (http://www.inkscape.org/) -->
<svg xmlns:dc="http://purl.org/dc/elements/1.1/" xmlns:cc="http://creativecommons.org/ns#" xmlns:rdf="http://www.w3.org/1999/02/22-rdf-syntax-ns#" xmlns:svg="http://www.w3.org/2000/svg" xmlns="http://www.w3.org/2000/svg" xmlns:sodipodi="http://sodipodi.sourceforge.net/DTD/sodipodi-0.dtd" xmlns:inkscape="http://www.inkscape.org/namespaces/inkscape" width="1000" height="347.65302" id="svg2" version="1.1" inkscape:version="0.48.5 r10040" sodipodi:docname="Facebook_2015.svg">
  <defs id="defs4"/>
  <sodipodi:namedview id="base" pagecolor="#ffffff" bordercolor="#666666" borderopacity="1.0" inkscape:pageopacity="0.0" inkscape:pageshadow="2" inkscape:zoom="0.57490236" inkscape:cx="1010.013" inkscape:cy="202.93385" inkscape:document-units="px" inkscape:current-layer="layer1" showgrid="true" fit-margin-left="0.5" fit-margin-bottom="0.5" fit-margin-top="0.5" fit-margin-right="0.5" inkscape:window-width="1366" inkscape:window-height="706" inkscape:window-x="-8" inkscape:window-y="-8" inkscape:window-maximized="1">
    <inkscape:grid type="xygrid" id="grid2996" empspacing="5" visible="true" enabled="true" snapvisiblegridlinesonly="true" originx="160.5px" originy="947.50006px"/>
  </sodipodi:namedview>
  <metadata id="metadata7">
    <rdf:RDF>
      <cc:Work rdf:about="">
        <dc:format>image/svg+xml</dc:format>
        <dc:type rdf:resource="http://purl.org/dc/dcmitype/StillImage"/>
        <dc:title/>
      </cc:Work>
    </rdf:RDF>
  </metadata>
  <g inkscape:label="Layer 1" inkscape:groupmode="layer" id="layer1" transform="translate(160.5,-1652.2092)">
    <g id="g3472">
      <path style="fill:#4867aa;fill-opacity:1;fill-rule:evenodd;stroke:none" d="m -160,1652.7092 999,0 0,346.653 -999,0 z" id="rect3062"/>
      <g style="fill:#ffffff;stroke:none" transform="matrix(0.91643724,0,0,0.91643724,-135.92499,549.45645)" id="g3052">
        <path sodipodi:nodetypes="ccccccccccscccccc" inkscape:connector-curvature="0" id="path3025" d="m 131,1479.3932 -34.5,0 0,-86 -23.5,0 0,-28 23.5,0 0,-19.9238 c 0,-23.6101 10.39369,-40.5426 44.7987,-40.5426 7.27706,0 18.7013,1.4664 18.7013,1.4664 l 0,26 -12,0 c -12.22593,0 -17,3.7186 -17,14 l 0,19 28.54124,0 -2.54124,28 -26,0 z" style="fill:#ffffff;fill-opacity:1;stroke:none"/>
        <path id="path3027" d="m 210.15625,1363.156 c -0.50167,0 -1.01973,0.018 -1.53125,0.031 -31.98961,0 -46.625,24.0622 -46.625,58.2188 0,43.0288 18.98475,60.25 46.875,60.25 15.95665,0 26.44029,-6.716 32.8125,-19.25 l 0,17 32.8125,0 0,-114 -32.8125,0 0,17.5312 c -5.20234,-11.2795 -15.97955,-19.6482 -31.53125,-19.7812 z m 8.34375,26.9375 c 13.43605,0 21.5,9.3722 21.5,25.3125 l 0.0312,16.2812 c 0,10.7435 -6.66063,23.3125 -21.53125,23.3125 -22.86154,0 -22.25,-24.6846 -22.25,-32.9062 0,-27.6555 12.17968,-32 22.25,-32 z" style="fill:#ffffff;fill-opacity:1;stroke:none" inkscape:connector-curvature="0"/>
        <path sodipodi:nodetypes="ccccccccccccc" inkscape:connector-curvature="0" id="path3029" d="m 287.75268,1422.4112 c 0,-13.8531 -0.66334,-59.1813 58.39307,-59.1813 23.70583,0 33.60434,7.5381 33.60434,7.5381 l -7.9563,24.6761 c 0,0 -9.88573,-5.4433 -22.76712,-5.4433 -16.49941,0 -27.02667,9.564 -27.02667,26.3924 l 0.0189,12.0668 c 0,16.1708 10.15668,26.9644 27.04171,26.9644 11.73474,0 22.55146,-5.495 22.55146,-5.495 l 7.93613,24.1617 c 0,0 -9.05114,7.5847 -33.2376,7.5847 -56.23023,0 -58.55788,-40.6685 -58.55788,-59.2646 z" style="fill:#ffffff;fill-opacity:1;stroke:none"/>
        <path sodipodi:nodetypes="csscccccccscsssss" inkscape:connector-curvature="0" style="fill:#ffffff;fill-opacity:1;stroke:none" d="m 572.14438,1363.1872 c 31.98961,0 46.85562,24.0621 46.85562,58.2187 0,43.0288 -18.98475,60.25 -46.875,60.25 -15.95665,0 -27.75279,-6.7159 -34.125,-19.25 l 0,17 -32.4,-0.013 0,-171 34.4,-3 0,76 c 4.96499,-13.2963 21.28167,-18.2059 32.14438,-18.2059 z M 562.5,1390.0935 c -13.43605,0 -22.5,9.3722 -22.5,25.3125 l -0.0312,16.2812 c -0.0206,10.7435 6.27693,23.3125 22.53125,23.3125 22.86154,0 22.25,-24.6846 22.25,-32.9062 0,-27.6555 -12.17968,-32 -22.25,-32 z" id="path3031"/>
        <path id="path3033" d="m 439.4375,1363.281 c -36.28291,0 -55.4375,19.7823 -55.4375,54.9375 l 0,6.5312 c 0,45.6274 26.89957,57.375 58.96875,57.375 31.17186,0 45.28125,-8.7187 45.28125,-8.7187 l -6.4375,-23.2188 c 0,0 -16.59667,7.0625 -34.71875,7.0625 -18.78669,0 -26.86695,-4.7891 -28.9375,-22.8437 l 72.84375,0 0,-18.625 c 0,-38.1337 -21.49779,-52.5 -51.5625,-52.5 z m 0.875,23.25 c 12.55908,0 20.69695,7.7013 20.25,25.5625 l -42.34375,0 c 0.73482,-18.7992 9.51092,-25.5625 22.09375,-25.5625 z" style="fill:#ffffff;fill-opacity:1;stroke:none" inkscape:connector-curvature="0"/>
        <path id="path3035" d="m 687.59375,1363.1247 c -37.25966,0 -56.875,20.9967 -56.875,58.625 0,51.6268 33.81242,59.9375 56.9375,59.9375 33.85221,0 56.375,-18.2258 56.375,-59.4687 0,-42.9274 -25.32502,-59.0938 -56.4375,-59.0938 z m -0.46875,27.0625 c 16.38362,0 22.875,12.2615 22.875,26.2188 l 0,12 c 0,16.909 -9.08411,26.6875 -22.9375,26.6875 -12.95651,0 -22.0625,-9.1476 -22.0625,-26.6875 l 0,-12 c 0,-18.7062 10.83552,-26.2188 22.125,-26.2188 z" style="fill:#ffffff;fill-opacity:1;stroke:none" inkscape:connector-curvature="0"/>
        <path inkscape:connector-curvature="0" style="fill:#ffffff;fill-opacity:1;stroke:none" d="m 812.5625,1363.1247 c -37.25966,0 -56.875,20.9967 -56.875,58.625 0,51.6268 33.81242,59.9375 56.9375,59.9375 33.85221,0 56.375,-18.2258 56.375,-59.4687 0,-42.9274 -25.32502,-59.0938 -56.4375,-59.0938 z m -0.46875,27.0625 c 16.38362,0 22.875,12.2615 22.875,26.2188 l 0,12 c 0,16.909 -9.08411,26.6875 -22.9375,26.6875 -12.95651,0 -22.0625,-9.1476 -22.0625,-26.6875 l 0,-12 c 0,-18.7062 10.83552,-26.2188 22.125,-26.2188 z" id="path3037"/>
        <path sodipodi:nodetypes="cccccccccccc" inkscape:connector-curvature="0" id="path3039" d="m 882,1479.3932 0,-171 34.5,-3 0,114.6149 34.22821,-54.6149 36.43486,0 -35.70664,56.5651 37.08168,57.4349 -36.53811,0 -35.5,-55.7688 0,55.7688 z" style="fill:#ffffff;fill-opacity:1;stroke:none"/>
      </g>
    </g>
  </g>
<div xmlns="" id="divScriptsUsed" style="display: none"/><script xmlns="" id="globalVarsDetection" src="moz-extension://616832e2-425a-1b47-aff1-2abde6a0e4da/js/wrs_env.js"/></svg>