<?xml version="1.0" encoding="UTF-8" standalone="no"?><!DOCTYPE svg PUBLIC "-//W3C//DTD SVG 1.1//EN" "http://www.w3.org/Graphics/SVG/1.1/DTD/svg11.dtd"><svg width="100%" height="100%" viewBox="0 0 1000 347" version="1.1" xmlns="http://www.w3.org/2000/svg" xmlns:xlink="http://www.w3.org/1999/xlink" xml:space="preserve" style="fill-rule:evenodd;clip-rule:evenodd;stroke-linejoin:round;stroke-miterlimit:1.41421;"><g id="g3472"><path id="rect3062" d="M0.5,0.5l999,0l0,346.653l-999,0l0,-346.653Z" style="fill:#4867aa;"/><g id="g3052"><path id="path3025" d="M144.628,253.018l-31.617,0l0,-78.813l-21.536,0l0,-25.661l21.536,0l0,-18.258c0,-21.638 9.525,-37.155 41.055,-37.155c6.669,0 17.139,1.344 17.139,1.344l0,23.827l-10.997,0c-11.205,0 -15.58,3.408 -15.58,12.83l0,17.412l26.157,0l-2.329,25.661l-23.828,0l0,78.813Z" style="fill:#fff;fill-rule:nonzero;"/><path id="path3027" d="M217.17,146.494c-0.46,0 -0.934,0.017 -1.403,0.029c-29.317,0 -42.729,22.051 -42.729,53.353c0,39.434 17.398,55.216 42.958,55.216c14.623,0 24.231,-6.155 30.07,-17.642l0,15.58l30.071,0l0,-104.474l-30.071,0l0,16.066c-4.767,-10.337 -14.644,-18.006 -28.896,-18.128l0,0Zm7.647,24.687c12.313,0 19.703,8.589 19.703,23.197l0.029,14.921c0,9.845 -6.105,21.364 -19.732,21.364c-20.952,0 -20.391,-22.622 -20.391,-30.156c0,-25.345 11.162,-29.326 20.391,-29.326l0,0Z" style="fill:#fff;fill-rule:nonzero;"/><path id="path3029" d="M288.282,200.798c0,-12.696 -0.608,-54.236 53.514,-54.236c21.725,0 30.796,6.908 30.796,6.908l-7.291,22.614c0,0 -9.06,-4.988 -20.865,-4.988c-15.121,0 -24.768,8.765 -24.768,24.187l0.017,11.058c0,14.82 9.308,24.711 24.782,24.711c10.754,0 20.667,-5.035 20.667,-5.035l7.273,22.142c0,0 -8.295,6.951 -30.46,6.951c-51.532,0 -53.665,-37.27 -53.665,-54.312l0,0Z" style="fill:#fff;fill-rule:nonzero;"/><path id="path3031" d="M548.909,146.523c29.317,0 42.941,22.051 42.941,53.354c0,39.433 -17.399,55.215 -42.958,55.215c-14.624,0 -25.434,-6.155 -31.274,-17.642l0,15.58l-29.692,-0.012l0,-156.711l31.525,-2.749l0,69.649c4.55,-12.185 19.503,-16.684 29.458,-16.684l0,0Zm-8.838,24.658c-12.313,0 -20.62,8.589 -20.62,23.197l-0.028,14.921c-0.019,9.845 5.752,21.364 20.648,21.364c20.951,0 20.391,-22.622 20.391,-30.156c0,-25.345 -11.162,-29.326 -20.391,-29.326l0,0Z" style="fill:#fff;fill-rule:nonzero;"/><path id="path3033" d="M427.292,146.609c-33.251,0 -50.805,18.129 -50.805,50.346l0,5.986c0,41.815 24.652,52.581 54.041,52.581c28.567,0 41.497,-7.991 41.497,-7.991l-5.899,-21.278c0,0 -15.21,6.472 -31.818,6.472c-17.216,0 -24.622,-4.389 -26.519,-20.935l66.757,0l0,-17.068c0,-34.947 -19.702,-48.113 -47.254,-48.113Zm0.802,21.307c11.509,0 18.967,7.058 18.558,23.426l-38.806,0c0.674,-17.228 8.716,-23.426 20.248,-23.426Z" style="fill:#fff;fill-rule:nonzero;"/><path id="path3035" d="M654.712,146.465c-34.147,0 -52.123,19.243 -52.123,53.727c0,47.312 30.987,54.929 52.18,54.929c31.023,0 51.664,-16.703 51.664,-54.5c0,-39.34 -23.209,-54.156 -51.721,-54.156Zm-0.43,24.802c15.015,0 20.963,11.236 20.963,24.027l0,10.998c0,15.496 -8.325,24.457 -21.02,24.457c-11.874,0 -20.219,-8.383 -20.219,-24.457l0,-10.998c0,-17.143 9.93,-24.027 20.276,-24.027Z" style="fill:#fff;fill-rule:nonzero;"/><path id="path3037" d="M769.238,146.465c-34.147,0 -52.123,19.243 -52.123,53.727c0,47.312 30.987,54.929 52.18,54.929c31.023,0 51.664,-16.703 51.664,-54.5c0,-39.34 -23.209,-54.156 -51.721,-54.156Zm-0.43,24.802c15.015,0 20.963,11.236 20.963,24.027l0,10.998c0,15.496 -8.325,24.457 -21.02,24.457c-11.874,0 -20.219,-8.383 -20.219,-24.457l0,-10.998c0,-17.143 9.93,-24.027 20.276,-24.027Z" style="fill:#fff;fill-rule:nonzero;"/><path id="path3039" d="M832.873,253.018l0,-156.71l31.617,-2.75l0,105.038l31.368,-50.052l33.39,0l-32.723,51.839l33.983,52.635l-33.485,0l-32.533,-51.108l0,51.108l-31.617,0Z" style="fill:#fff;fill-rule:nonzero;"/></g><path d="M1017.42,3.488l-4.882,-14.183l-1067.25,367.419l4.882,14.183l1067.25,-367.419Z" style="fill:#df5258;"/><path d="M1042.46,369.299l4.862,-14.191l-1067.81,-365.803l-4.862,14.19l1067.81,365.804Z" style="fill:#df5258;"/></g></svg>